<svg width="20" height="22" viewBox="0 0 20 22" fill="none" xmlns="http://www.w3.org/2000/svg">
<path d="M9.27367 0C9.61669 0 9.96144 0 10.3045 0C10.5886 0.188834 10.864 0.393259 11.1603 0.563036C13.6619 2.00095 16.16 3.44405 18.6772 4.85597C19.32 5.21632 19.6318 5.67021 19.6249 6.42555C19.6006 9.485 19.6041 12.5445 19.6231 15.6039C19.6283 16.3177 19.3477 16.7681 18.7275 17.1163C16.0128 18.6426 13.3085 20.1879 10.6163 21.7523C10.0238 22.0953 9.52833 22.078 8.94277 21.7384C6.22461 20.1602 3.48912 18.6149 0.764021 17.0487C0.493763 16.8928 0.252957 16.6867 -0.00170898 16.503C-0.00170898 12.8355 -0.00170898 9.16797 -0.00170898 5.50217C1.15382 4.60131 2.49298 4.00535 3.73685 3.25348C5.56975 2.14474 7.4962 1.19883 9.27367 0ZM9.04152 15.6853C9.04152 14.5125 9.0242 13.3379 9.05019 12.1651C9.06231 11.6419 8.86135 11.3127 8.41265 11.0598C6.34588 9.89385 4.28603 8.71754 2.23311 7.52563C1.68567 7.2086 1.42754 7.19994 1.4362 7.95181C1.46045 10.2975 1.45699 12.6449 1.4362 14.9906C1.43273 15.5156 1.63543 15.8412 2.08066 16.0924C4.17169 17.274 6.25752 18.4641 8.33296 19.6716C8.95144 20.032 9.05711 19.7808 9.04845 19.2021C9.0294 18.0293 9.04325 16.8564 9.04152 15.6819V15.6853ZM10.5331 15.6264C10.5331 16.8287 10.5505 18.031 10.5262 19.2316C10.5141 19.8761 10.7029 19.9921 11.2642 19.6647C13.3154 18.4711 15.3718 17.2878 17.442 16.1288C17.96 15.8378 18.1454 15.4653 18.1402 14.8832C18.1159 12.5947 18.1142 10.3044 18.1402 8.01591C18.1489 7.2727 17.9583 7.16875 17.3208 7.54122C15.299 8.72793 13.2634 9.89038 11.2157 11.0321C10.6943 11.3231 10.5054 11.6973 10.521 12.2777C10.5522 13.3933 10.5297 14.509 10.5297 15.6247L10.5331 15.6264ZM9.79166 10.055C9.95971 9.98913 10.1 9.95448 10.223 9.88519C12.4093 8.64131 14.5939 7.39397 16.7802 6.14836C17.3294 5.83479 17.028 5.64596 16.6867 5.45193C14.5766 4.24616 12.4648 3.04386 10.3599 1.82944C9.97183 1.60595 9.62708 1.59556 9.23729 1.82077C7.1324 3.03347 5.02404 4.2427 2.90529 5.4346C2.34745 5.74817 2.42541 5.9422 2.92608 6.22285C5.01884 7.4009 7.09775 8.60147 9.18531 9.78644C9.37934 9.89732 9.5959 9.97008 9.78993 10.0532L9.79166 10.055Z" fill="#9BA4C2"/>
</svg>
