<svg width="20" height="22" viewBox="0 0 20 22" fill="none" xmlns="http://www.w3.org/2000/svg">
<path d="M9.27342 0C9.61644 0 9.96119 0 10.3042 0C10.5883 0.188834 10.8638 0.393259 11.16 0.563036C13.6616 2.00095 16.1598 3.44405 18.677 4.85597C19.3197 5.21632 19.6316 5.67021 19.6246 6.42555C19.6004 9.485 19.6038 12.5445 19.6229 15.6039C19.6281 16.3177 19.3474 16.7681 18.7272 17.1163C16.0125 18.6426 13.3082 20.1879 10.616 21.7523C10.0236 22.0953 9.52809 22.078 8.94253 21.7384C6.22436 20.1602 3.48887 18.6149 0.763776 17.0487C0.493519 16.8928 0.252713 16.6867 -0.00195312 16.503C-0.00195312 12.8355 -0.00195312 9.16797 -0.00195312 5.50217C1.15357 4.60131 2.49273 4.00535 3.73661 3.25348C5.56951 2.14474 7.49596 1.19883 9.27342 0ZM9.04128 15.6853C9.04128 14.5125 9.02395 13.3379 9.04994 12.1651C9.06207 11.6419 8.86111 11.3127 8.41241 11.0598C6.34563 9.89385 4.28579 8.71754 2.23287 7.52563C1.68542 7.2086 1.42729 7.19994 1.43596 7.95181C1.46021 10.2975 1.45674 12.6449 1.43596 14.9906C1.43249 15.5156 1.63518 15.8412 2.08042 16.0924C4.17145 17.274 6.25728 18.4641 8.33272 19.6716C8.95119 20.032 9.05687 19.7808 9.04821 19.2021C9.02915 18.0293 9.04301 16.8564 9.04128 15.6819V15.6853ZM10.5329 15.6264C10.5329 16.8287 10.5502 18.031 10.526 19.2316C10.5138 19.8761 10.7027 19.9921 11.264 19.6647C13.3152 18.4711 15.3715 17.2878 17.4418 16.1288C17.9598 15.8378 18.1451 15.4653 18.1399 14.8832C18.1157 12.5947 18.114 10.3044 18.1399 8.01591C18.1486 7.2727 17.958 7.16875 17.3205 7.54122C15.2988 8.72793 13.2632 9.89038 11.2155 11.0321C10.694 11.3231 10.5052 11.6973 10.5208 12.2777C10.5519 13.3933 10.5294 14.509 10.5294 15.6247L10.5329 15.6264ZM9.79142 10.055C9.95946 9.98913 10.0998 9.95448 10.2228 9.88519C12.4091 8.64131 14.5937 7.39397 16.78 6.14836C17.3292 5.83479 17.0277 5.64596 16.6864 5.45193C14.5764 4.24616 12.4645 3.04386 10.3596 1.82944C9.97159 1.60595 9.62684 1.59556 9.23704 1.82077C7.13215 3.03347 5.0238 4.2427 2.90505 5.4346C2.34721 5.74817 2.42517 5.9422 2.92584 6.22285C5.0186 7.4009 7.0975 8.60147 9.18507 9.78644C9.3791 9.89732 9.59565 9.97008 9.78968 10.0532L9.79142 10.055Z" fill="#9E3FFD"/>
</svg>
