<svg width="31" height="31" viewBox="0 0 31 31" fill="none" xmlns="http://www.w3.org/2000/svg">
<path d="M0 15.1872C0.226738 14.6258 0.640807 14.3706 1.24766 14.379C2.19463 14.393 3.14159 14.3809 4.08855 14.3833C4.78938 14.3857 5.32045 14.858 5.32894 15.4806C5.33803 16.1069 4.79362 16.5937 4.07521 16.5955C3.15856 16.5979 2.24131 16.5761 1.32526 16.6034C0.712344 16.6216 0.272206 16.4021 0 15.8522V15.1866V15.1872Z" fill="#9BA4C2"/>
<path d="M15.7922 0C16.3523 0.226738 16.6088 0.638988 16.6003 1.24584C16.5863 2.19159 16.5985 3.13795 16.596 4.0837C16.5942 4.79726 16.0983 5.3441 15.4751 5.32894C14.8507 5.31378 14.3863 4.78695 14.3838 4.0837C14.3814 3.13795 14.3929 2.19159 14.3796 1.24584C14.3711 0.638988 14.6276 0.226738 15.1877 0H15.7928L15.7922 0Z" fill="#9BA4C2"/>
<path d="M23.3133 15.4697C23.32 19.7462 19.7789 23.3061 15.5115 23.3133C11.2417 23.3206 7.6733 19.7692 7.66603 15.5061C7.65875 11.232 11.2035 7.67209 15.4715 7.66602C19.7474 7.65996 23.3067 11.2017 23.3133 15.4697ZM21.0993 15.5188C21.1066 12.3711 18.6519 9.88732 15.5267 9.88005C12.3748 9.87217 9.88915 12.322 9.88066 15.4454C9.87157 18.6016 12.3166 21.089 15.4382 21.0993C18.6088 21.1096 21.0927 18.6616 21.0993 15.5194V15.5188Z" fill="#9BA4C2"/>
<path d="M28.3169 16.5967C27.824 16.5967 27.3305 16.6009 26.8376 16.5955C26.1732 16.5882 25.6385 16.0814 25.6506 15.4782C25.6627 14.8756 26.1798 14.3893 26.8322 14.3857C27.8385 14.3796 28.8443 14.3796 29.8507 14.3857C30.5176 14.39 30.9989 14.8598 31.0001 15.4873C31.0014 16.1172 30.5212 16.584 29.8568 16.5955C29.5955 16.6003 29.3336 16.5967 29.0723 16.5967C28.8207 16.5967 28.5691 16.5967 28.3175 16.5967H28.3169Z" fill="#9BA4C2"/>
<path d="M16.5959 28.3574C16.5959 28.8502 16.6002 29.3437 16.5953 29.8366C16.588 30.5217 16.1206 31.0043 15.4768 31C14.853 30.9958 14.3886 30.5096 14.3849 29.8403C14.3795 28.8339 14.3783 27.8281 14.3849 26.8217C14.3892 26.1743 14.8893 25.6523 15.4877 25.6505C16.0842 25.6486 16.5856 26.1718 16.5941 26.8181C16.6014 27.331 16.5953 27.8445 16.5959 28.3574Z" fill="#9BA4C2"/>
<path d="M26.7667 25.7165C26.7443 26.1294 26.5655 26.4483 26.1932 26.6423C25.8222 26.8356 25.456 26.8053 25.1026 26.5907C25.0517 26.5598 25.0032 26.521 24.9607 26.4786C24.1914 25.7111 23.4111 24.9532 22.6588 24.1688C22.2738 23.7674 22.2647 23.2339 22.5684 22.812C22.9298 22.3106 23.6549 22.1924 24.1108 22.6077C24.9443 23.3667 25.7319 24.1748 26.5054 24.9951C26.6928 25.1933 26.7722 25.4413 26.7661 25.7171L26.7667 25.7165Z" fill="#9BA4C2"/>
<path d="M23.4602 8.61298C23.0509 8.60874 22.743 8.42383 22.5465 8.0716C22.3519 7.72119 22.3519 7.35804 22.549 7.00581C22.6072 6.90154 22.686 6.80514 22.7702 6.72027C23.4874 5.99822 24.2052 5.278 24.9279 4.56202C25.2365 4.25647 25.6063 4.13158 26.0337 4.25828C26.4459 4.38075 26.6993 4.66387 26.7933 5.08036C26.8752 5.44411 26.7618 5.76967 26.5114 6.0255C25.7506 6.80332 24.9782 7.56902 24.2046 8.33411C24.0027 8.53417 23.7451 8.61722 23.4602 8.61298Z" fill="#9BA4C2"/>
<path d="M7.5079 22.3664C7.92985 22.367 8.24632 22.5574 8.44153 22.9248C8.63553 23.2891 8.6228 23.6601 8.40636 24.0166C8.36453 24.0851 8.31543 24.1506 8.25905 24.2076C7.51275 24.9569 6.77858 25.719 6.01228 26.4477C5.35996 27.0685 4.3554 26.7459 4.18141 25.8814C4.10805 25.5177 4.22869 25.1964 4.48029 24.9399C5.2284 24.1779 5.98621 23.4261 6.74342 22.6732C6.95258 22.4646 7.21084 22.3646 7.5079 22.367V22.3664Z" fill="#9BA4C2"/>
<path d="M7.61945 8.61297C7.18902 8.61176 6.93682 8.50203 6.72766 8.29348C5.98622 7.55386 5.23992 6.81847 4.50757 6.07036C4.0444 5.59749 4.04561 4.97244 4.48453 4.5323C4.91558 4.09944 5.56002 4.08974 6.02744 4.54322C6.77858 5.27254 7.51578 6.01762 8.24995 6.76452C8.59491 7.11554 8.67251 7.54173 8.47366 7.98975C8.28875 8.40564 7.94016 8.60085 7.62006 8.61297H7.61945Z" fill="#9BA4C2"/>
</svg>
