<svg width="22" height="22" viewBox="0 0 22 22" fill="none" xmlns="http://www.w3.org/2000/svg">
<g clip-path="url(#clip0_250_1091)">
<path d="M21.9883 11.8883C21.5518 12.6577 20.8945 12.9786 20.0077 12.9683C17.9875 12.9424 15.9655 12.9683 13.9436 12.9579C12.4823 12.9493 11.8526 12.3282 11.8474 10.8756C11.8354 7.91512 11.8354 4.95464 11.8474 1.99244C11.8526 0.627791 12.4737 0.0256893 13.8487 0.0187884C15.8413 0.0101623 17.8357 0.0498424 19.8266 0.00153622C20.7254 -0.0208916 21.4466 0.203387 21.9866 0.933155V11.8883H21.9883ZM20.5581 6.46593C20.5581 5.12544 20.5305 3.78494 20.5701 2.44617C20.5909 1.75091 20.3683 1.47832 19.6437 1.49385C17.8771 1.53353 16.1087 1.52836 14.3421 1.49385C13.6813 1.48177 13.4312 1.69398 13.4381 2.37199C13.464 5.08058 13.4605 7.78918 13.4415 10.4978C13.4381 11.1119 13.6434 11.3725 14.2817 11.3638C16.1053 11.338 17.9306 11.3362 19.7558 11.3638C20.4132 11.3742 20.584 11.0861 20.5701 10.484C20.5408 9.1452 20.5615 7.8047 20.5615 6.46421L20.5581 6.46593Z" fill="#9E3FFD"/>
<path d="M0.932094 21.9877C0.204051 21.4477 -0.0116014 20.7249 0.000475138 19.8278C0.0418804 16.9518 0.0125517 14.0759 0.0177273 11.1999C0.0211778 9.71107 0.604302 9.11414 2.07419 9.10724C4.09615 9.09689 6.1181 9.09516 8.14006 9.10724C9.59097 9.11759 10.2121 9.74212 10.2172 11.2086C10.2276 14.1414 10.2069 17.0743 10.2293 20.0072C10.2362 20.8939 9.91531 21.5478 9.14931 21.9877H0.932094ZM8.61622 15.6734C8.61622 14.3053 8.59897 12.9355 8.62485 11.5674C8.63692 10.9567 8.4299 10.6893 7.78812 10.6979C5.96456 10.7238 4.13928 10.7238 2.31399 10.6979C1.66014 10.6875 1.49106 10.967 1.49624 11.5726C1.51867 14.2812 1.51694 16.9898 1.49624 19.6984C1.49106 20.3108 1.68429 20.5748 2.32952 20.5661C4.15308 20.5385 5.97836 20.5351 7.80364 20.5679C8.46785 20.5799 8.63347 20.2884 8.62312 19.6932C8.59897 18.3544 8.61622 17.0139 8.6145 15.6734H8.61622Z" fill="#9E3FFD"/>
<path d="M12.9154 21.9878C12.1063 21.534 11.8061 20.8336 11.8354 19.9209C11.8717 18.7823 11.8268 17.6419 11.851 16.5033C11.8786 15.2577 12.5204 14.6055 13.7677 14.5917C15.9035 14.5676 18.0411 14.5917 20.1769 14.5814C21.0067 14.5779 21.5829 14.9609 21.9866 15.6545C21.9866 17.5953 21.9711 19.5345 21.9987 21.4754C22.0039 21.9049 21.9021 22.0033 21.4742 21.9998C18.6207 21.9774 15.7689 21.9878 12.9154 21.9878ZM17.0232 16.1876C16.0829 16.1876 15.1427 16.1962 14.2024 16.1841C13.7263 16.1789 13.4416 16.3308 13.4485 16.8638C13.4606 17.8904 13.4537 18.9151 13.452 19.9416C13.452 20.366 13.6469 20.5593 14.0799 20.5575C16.0174 20.5506 17.9565 20.5506 19.8939 20.5575C20.3632 20.5575 20.565 20.3471 20.5599 19.883C20.5495 18.8858 20.5426 17.8869 20.5633 16.8915C20.5737 16.3704 20.3442 16.1772 19.8456 16.1841C18.9054 16.1979 17.9651 16.1876 17.0249 16.1876H17.0232Z" fill="#9E3FFD"/>
<path d="M5.11904 0.0170492C6.17314 0.0170492 7.22725 0.00669792 8.28136 0.0187745C9.55112 0.0325762 10.1912 0.643304 10.2136 1.89064C10.236 3.11554 10.2378 4.34217 10.2136 5.56536C10.1877 6.80924 9.54077 7.45792 8.28999 7.47172C6.15244 7.49415 4.01662 7.49415 1.87907 7.47172C0.666244 7.45965 0.0382639 6.81441 0.022737 5.61194C0.00720998 4.3301 0.00375954 3.04653 0.022737 1.7647C0.0399892 0.641579 0.650717 0.0412023 1.78591 0.0222249C2.89695 0.00324748 4.00799 0.0187745 5.11904 0.0170492ZM5 5.8759C5.94024 5.8759 6.88049 5.86554 7.82073 5.88107C8.33657 5.8897 8.62986 5.72753 8.61778 5.15303C8.5988 4.15585 8.6057 3.15867 8.61433 2.1615C8.61778 1.69224 8.40558 1.50074 7.93804 1.50419C6.02823 1.51454 4.12013 1.51627 2.21032 1.50419C1.6962 1.50074 1.49435 1.72502 1.50298 2.22706C1.5185 3.1949 1.5254 4.1662 1.49952 5.13405C1.484 5.6982 1.72898 5.89487 2.26552 5.8828C3.17644 5.86382 4.08908 5.87762 5.00172 5.87762L5 5.8759Z" fill="#9E3FFD"/>
</g>
<defs>
<clipPath id="clip0_250_1091">
<rect width="22" height="22" fill="white"/>
</clipPath>
</defs>
</svg>
