<svg width="30" height="30" viewBox="0 0 30 30" fill="none" xmlns="http://www.w3.org/2000/svg">
<path d="M15.1323 30.0001C14.6713 29.909 14.2015 29.9595 13.7359 29.9137C11.6385 29.7098 9.66321 29.1109 7.83392 28.0736C4.33956 26.0919 1.94723 23.1839 0.706787 19.3509C0.0299672 17.2604 -0.147742 15.1153 0.117942 12.9296C0.509137 9.71428 1.7965 6.90446 3.96127 4.51779C5.93425 2.34269 8.35063 0.84816 11.1834 0.0500564C11.6684 -0.0868789 12.1376 0.064749 12.384 0.426188C12.6608 0.834055 12.6549 1.26132 12.3095 1.69739C11.3875 2.86105 10.7207 4.14989 10.333 5.58624C9.89429 7.21242 9.78813 8.85858 10.079 10.5171C10.6298 13.6572 12.2274 16.1444 14.8414 17.9533C16.2736 18.9442 17.8724 19.5431 19.6044 19.7776C22.521 20.1731 25.1732 19.4896 27.5884 17.8305C27.8376 17.6595 28.074 17.469 28.3074 17.2769C28.8312 16.8473 29.664 16.8761 30.0006 17.6236V18.2689C29.7831 18.916 29.6224 19.5801 29.3748 20.2183C28.3332 22.9083 26.674 25.1351 24.3791 26.8717C22.0794 28.6125 19.4882 29.6228 16.6156 29.9143C16.1599 29.9607 15.7 29.9043 15.2496 29.9995H15.1323V30.0001ZM9.02803 3.19663C5.22517 5.06965 1.32613 10.0881 2.28623 16.6498C3.1953 22.863 8.38288 27.5599 14.6608 27.8603C17.2314 27.9831 19.6571 27.3983 21.8812 26.0754C24.0506 24.7848 26.7702 21.8857 26.9984 20.6344C24.4917 21.7998 21.8841 22.2283 19.158 21.804C16.4197 21.3779 13.9845 20.2548 12.0368 18.283C7.74536 13.9393 6.92485 8.85623 9.02803 3.19545V3.19663Z" fill="#1B264A"/>
</svg>
