<svg width="23" height="18" viewBox="0 0 23 18" fill="none" xmlns="http://www.w3.org/2000/svg">
<g clip-path="url(#clip0_239_661)">
<path d="M0.00494604 13.0998C0.00494604 8.79721 0.00629496 4.4946 0 0.191996C0 0.0242806 0.0418166 0 0.197842 0C6.67041 0.0044964 13.143 0.00404676 19.616 0.00404676C20.0814 0.167716 20.2163 0.356115 20.2163 0.85027C20.2163 3.12905 20.2163 5.40827 20.2163 7.68705C20.2163 7.96673 20.3525 8.10671 20.625 8.10701C21.1709 8.10701 21.7167 8.10342 22.2621 8.10881C22.714 8.11331 22.9955 8.39119 22.9973 8.83453C23.0009 9.71628 23.0009 10.598 22.9973 11.4798C22.9955 11.8683 22.7693 12.1304 22.3844 12.1857C22.2154 12.21 22.0418 12.2064 21.8701 12.2064C21.7226 12.2064 21.6493 12.2635 21.652 12.4191C21.6569 12.7104 21.656 13.0018 21.6524 13.2932C21.6506 13.4397 21.7217 13.4924 21.8597 13.4892C22.0166 13.4856 22.174 13.4834 22.3305 13.4924C22.7149 13.5144 22.9933 13.7914 22.996 14.1722C23.0022 15.0764 22.9982 15.9802 22.9982 16.8844C22.9982 17.1371 22.884 17.3291 22.6772 17.4663C22.5072 17.5787 22.3116 17.5881 22.116 17.5881C20.8898 17.5881 19.6637 17.5881 18.4375 17.5881C17.5405 17.5881 16.643 17.5908 15.746 17.5868C15.1358 17.5841 14.8844 17.3309 14.8835 16.7302C14.8826 16.1996 14.8795 15.6691 14.8849 15.1389C14.8867 14.969 14.8242 14.8921 14.6488 14.8957C14.4627 14.8997 14.2752 14.9092 14.0904 14.8674C13.7648 14.7941 13.5558 14.5522 13.54 14.2208C13.5351 14.1165 13.5373 14.0117 13.5369 13.9069C13.5363 13.6779 13.4192 13.5632 13.1857 13.5629C9.07374 13.5629 4.96178 13.5607 0.84982 13.5665C0.467176 13.567 0.181205 13.4451 0.0044964 13.0994L0.00494604 13.0998ZM10.1102 1.40917C8.39029 1.40917 6.67086 1.41052 4.95099 1.40737C4.78327 1.40737 4.68165 1.4366 4.6304 1.62995C4.20953 3.21853 3.20099 4.23336 1.61016 4.65603C1.41906 4.70683 1.36331 4.79182 1.36421 4.98022C1.3714 6.19065 1.3714 7.40153 1.36421 8.61196C1.36331 8.79856 1.43435 8.8696 1.60836 8.91547C3.13804 9.3152 4.1295 10.2801 4.59308 11.7873C4.70504 12.152 4.69829 12.1547 5.06924 12.1547C7.76079 12.1547 10.4528 12.1547 13.1443 12.1547C13.2041 12.1547 13.2639 12.1515 13.3237 12.1538C13.4771 12.1605 13.5405 12.0854 13.5364 11.9357C13.5324 11.7864 13.5328 11.6367 13.5382 11.4874C13.5522 11.0922 13.8233 10.8183 14.2208 10.7995C14.3552 10.7932 14.4906 10.7882 14.6241 10.7995C14.8206 10.8152 14.888 10.7329 14.8849 10.5396C14.8763 10.0018 14.8808 9.46358 14.8826 8.92536C14.8844 8.36151 15.1398 8.10746 15.7073 8.10656C16.6569 8.10522 17.6066 8.10072 18.5562 8.11016C18.7761 8.11241 18.839 8.03552 18.8372 7.82329C18.8282 6.88939 18.8273 5.95504 18.8381 5.02113C18.8408 4.79541 18.7716 4.69964 18.545 4.63849C17.0005 4.22122 16.0139 3.22797 15.5872 1.6902C15.5279 1.47572 15.4451 1.40333 15.2239 1.40423C13.5193 1.41232 11.8143 1.40872 10.1097 1.40872L10.1102 1.40917ZM18.9335 10.7977C19.7325 10.7977 20.5315 10.7981 21.3305 10.7977C21.6106 10.7977 21.6169 10.79 21.6178 10.504C21.6187 10.2504 21.6129 9.9964 21.6196 9.7428C21.6241 9.57914 21.554 9.50944 21.3934 9.51574C21.2891 9.51978 21.1844 9.51574 21.08 9.51574C19.5715 9.51574 18.0634 9.51844 16.5549 9.51304C16.3494 9.51214 16.25 9.5679 16.2639 9.79227C16.2792 10.0378 16.2779 10.2851 16.2639 10.5306C16.2522 10.7383 16.3327 10.8035 16.5369 10.8013C17.3359 10.7927 18.1349 10.7977 18.9339 10.7977H18.9335ZM17.5971 13.4883C18.4038 13.4883 19.21 13.4838 20.0166 13.4915C20.2131 13.4933 20.2837 13.4227 20.2743 13.2293C20.2626 12.9834 20.2603 12.7361 20.2747 12.491C20.2873 12.2761 20.2077 12.2001 19.9924 12.2032C19.3426 12.2127 18.6929 12.2064 18.0432 12.2064C17.1097 12.2064 16.1763 12.2059 15.2428 12.2064C14.9281 12.2064 14.9213 12.2149 14.9204 12.5369C14.9204 12.7608 14.9321 12.9856 14.9173 13.2082C14.9029 13.4249 14.9838 13.4946 15.2001 13.4919C15.9991 13.482 16.7981 13.4879 17.5971 13.4879V13.4883ZM18.9249 16.1794C19.7388 16.1794 20.5531 16.1763 21.3669 16.1821C21.5454 16.1835 21.6281 16.1295 21.6205 15.9388C21.6097 15.6704 21.6115 15.4015 21.6201 15.1331C21.6254 14.9564 21.5486 14.8961 21.3795 14.8966C19.759 14.8993 18.1385 14.9002 16.518 14.8952C16.3183 14.8948 16.2563 14.9775 16.2644 15.1655C16.2747 15.4114 16.2788 15.6587 16.2635 15.9038C16.2496 16.125 16.3395 16.1857 16.5504 16.1835C17.3417 16.174 18.1335 16.1799 18.9249 16.1794V16.1794ZM17.9173 1.40962C17.6709 1.40962 17.4245 1.41187 17.1781 1.40872C17.0103 1.40647 16.9627 1.47482 17.0243 1.63129C17.3269 2.39568 17.8593 2.92581 18.6299 3.21673C18.7806 3.27383 18.8354 3.21987 18.8345 3.067C18.8314 2.58183 18.8318 2.09667 18.8345 1.61196C18.8354 1.47167 18.7779 1.40603 18.634 1.40872C18.3952 1.41277 18.156 1.40962 17.9173 1.40962V1.40962ZM1.36871 2.31385C1.36871 2.56025 1.37275 2.80665 1.36736 3.05306C1.36376 3.21358 1.41457 3.27878 1.57959 3.21493C2.34757 2.91951 2.88264 2.39164 3.17941 1.62275C3.23471 1.48022 3.19964 1.40872 3.03957 1.40917C2.54676 1.41052 2.05351 1.41142 1.5607 1.40917C1.41232 1.40827 1.36601 1.48381 1.36826 1.6196C1.3723 1.85117 1.36915 2.08228 1.36915 2.31385H1.36871ZM1.36871 11.2122C1.36871 11.4514 1.3723 11.6906 1.36736 11.9294C1.36421 12.076 1.41637 12.1547 1.57284 12.1538C2.0589 12.1515 2.54451 12.1524 3.03058 12.1529C3.1848 12.1529 3.23336 12.0872 3.17671 11.9411C2.8741 11.165 2.33138 10.6335 1.55036 10.3449C1.43165 10.3008 1.36511 10.3296 1.36781 10.4721C1.3723 10.7185 1.36915 10.9654 1.36915 11.2118L1.36871 11.2122Z" fill="#9BA4C2"/>
<path d="M7.39209 6.75934C7.39479 5.26923 8.61646 4.0651 10.1214 4.06959C11.6111 4.07409 12.8139 5.29441 12.8116 6.79936C12.8094 8.29216 11.5922 9.50395 10.0926 9.50619C8.59758 9.50844 7.38984 8.27957 7.39254 6.75889L7.39209 6.75934ZM10.1061 5.47966C9.37725 5.47742 8.79047 6.04891 8.77563 6.77508C8.76124 7.48551 9.38355 8.10781 10.1061 8.10466C10.8201 8.10197 11.4267 7.4945 11.4231 6.78587C11.4195 6.0606 10.8354 5.48146 10.1061 5.47966Z" fill="#9BA4C2"/>
</g>
<defs>
<clipPath id="clip0_239_661">
<rect width="23" height="17.589" fill="white"/>
</clipPath>
</defs>
</svg>
