<svg width="20" height="20" viewBox="0 0 20 20" fill="none" xmlns="http://www.w3.org/2000/svg">
<g clip-path="url(#clip0_1_333)">
<path d="M2.41603 20C2.04434 19.7014 1.83632 19.3381 1.84655 18.8382C1.86531 17.7958 1.84144 16.7534 1.85508 15.711C1.86701 14.8187 2.18074 14.4553 3.05371 14.4212C4.09378 14.3803 5.13726 14.399 6.17903 14.4178C6.64792 14.4263 7.0844 14.5714 7.2856 15.0508C7.50384 15.5677 7.26684 15.9635 6.9122 16.3371C6.1671 17.1253 6.17733 17.139 7.22933 17.5399C12.0648 19.3807 17.3794 16.1085 17.9574 10.9341C17.9864 10.6816 18.046 10.4325 18.0614 10.1817C18.0904 9.65794 18.266 9.23996 18.8167 9.09153C19.3777 8.93969 19.7204 9.25702 20.0017 9.68353V11.3759C19.9233 11.6728 19.8397 11.9696 19.7664 12.2682C19.0622 15.1855 17.3811 17.3556 14.7809 18.8314C13.717 19.4353 12.5405 19.6929 11.3794 20.0034H8.67349C7.86872 19.7714 7.04519 19.5905 6.26428 19.2954C4.56778 18.6539 4.57801 18.63 3.26343 20.0034H2.41774L2.41603 20Z" fill="#9BA4C2"/>
<path d="M18.1961 2.83545C18.1961 3.37115 18.1893 3.90514 18.1961 4.44084C18.208 5.16932 17.8142 5.57366 17.1322 5.60266C16.0086 5.65043 14.8815 5.63337 13.7562 5.60948C13.318 5.59925 12.9225 5.41329 12.7485 4.96289C12.5627 4.48008 12.7639 4.09963 13.0947 3.74307C13.8739 2.89857 13.867 2.89175 12.7963 2.48912C7.99151 0.684124 2.64794 3.95291 2.09892 9.03693C2.05971 9.40032 2.00856 9.76371 1.95741 10.1254C1.87727 10.6901 1.51751 10.9904 0.980424 10.9835C0.436519 10.9767 0.0989233 10.6406 0.029017 10.0896C-0.0613496 9.37985 0.0801679 8.68208 0.225095 7.99625C1.57889 1.54056 8.58997 -1.87836 14.4791 1.06969C15.1543 1.40749 15.5993 1.41943 16.0461 0.803547C16.1927 0.602234 16.3922 0.429923 16.5934 0.278085C17.3027 -0.254202 18.1023 0.0853012 18.1774 0.977564C18.2302 1.59345 18.1876 2.21616 18.1876 2.83545H18.1961Z" fill="#9BA4C2"/>
</g>
<defs>
<clipPath id="clip0_1_333">
<rect width="20" height="20" fill="white"/>
</clipPath>
</defs>
</svg>
