<svg width="20" height="20" viewBox="0 0 20 20" fill="none" xmlns="http://www.w3.org/2000/svg">
<path d="M2.41603 20C2.04434 19.7014 1.83632 19.338 1.84655 18.8382C1.86531 17.7958 1.84144 16.7534 1.85508 15.711C1.86701 14.8187 2.18074 14.4553 3.05371 14.4212C4.09378 14.3803 5.13726 14.399 6.17903 14.4178C6.64792 14.4263 7.0844 14.5713 7.2856 15.0507C7.50384 15.5677 7.26684 15.9635 6.9122 16.3371C6.1671 17.1253 6.17733 17.1389 7.22933 17.5399C12.0648 19.3807 17.3794 16.1085 17.9574 10.9341C17.9864 10.6816 18.046 10.4325 18.0614 10.1817C18.0904 9.65793 18.266 9.23995 18.8167 9.09152C19.3777 8.93968 19.7204 9.25701 20.0017 9.68352V11.3759C19.9233 11.6728 19.8397 11.9696 19.7664 12.2682C19.0622 15.1855 17.3811 17.3556 14.7809 18.8313C13.717 19.4353 12.5405 19.6929 11.3794 20.0034H8.67349C7.86872 19.7714 7.04519 19.5905 6.26428 19.2954C4.56778 18.6539 4.57801 18.63 3.26343 20.0034H2.41774L2.41603 20Z" fill="#9E3FFD"/>
<path d="M18.1961 2.83537C18.1961 3.37107 18.1893 3.90506 18.1961 4.44076C18.208 5.16924 17.8142 5.57358 17.1321 5.60258C16.0085 5.65035 14.8815 5.63329 13.7562 5.6094C13.318 5.59917 12.9224 5.41321 12.7485 4.96281C12.5627 4.48 12.7639 4.09955 13.0946 3.74299C13.8738 2.89849 13.867 2.89167 12.7963 2.48904C7.99148 0.684044 2.64791 3.95283 2.09889 9.03685C2.05968 9.40024 2.00853 9.76363 1.95738 10.1253C1.87724 10.69 1.51748 10.9903 0.980393 10.9835C0.436489 10.9766 0.0988927 10.6405 0.0289865 10.0895C-0.0613801 9.37977 0.0801374 8.682 0.225065 7.99617C1.57886 1.54048 8.58994 -1.87844 14.4791 1.06961C15.1543 1.40741 15.5993 1.41935 16.046 0.803467C16.1927 0.602154 16.3922 0.429843 16.5934 0.278004C17.3026 -0.254283 18.1023 0.0852211 18.1773 0.977484C18.2302 1.59337 18.1876 2.21608 18.1876 2.83537H18.1961Z" fill="#9E3FFD"/>
</svg>
