<svg width="19" height="16" viewBox="0 0 19 16" fill="none" xmlns="http://www.w3.org/2000/svg">
<g clip-path="url(#clip0_1_346)">
<path d="M19 2.45164C18.4149 3.28179 17.6778 3.88961 16.6648 4.01593C16.0314 4.09465 15.5024 3.79246 15.0407 3.36242C14.6662 3.01416 14.3791 2.58834 14.064 2.18709C13.8854 1.95901 13.7093 1.72901 13.5035 1.52513C13.2572 1.28131 12.9838 1.26096 12.6847 1.4061C12.3972 1.54548 12.1817 1.77202 11.9822 2.01776C11.6609 2.41401 11.3715 2.83753 11.0223 3.20883C10.6846 3.56784 10.2968 3.84084 9.80347 3.92109C9.18977 4.02131 8.67452 3.80782 8.21983 3.3989C7.81602 3.03566 7.51958 2.57528 7.17707 2.15676C7.00544 1.94711 6.83716 1.73593 6.6243 1.56659C6.17034 1.20566 5.81111 1.22601 5.4166 1.648C5.00388 2.08918 4.67177 2.60139 4.26722 3.04987C3.75643 3.61622 3.16539 4.02246 2.37933 3.98867C1.80167 3.96371 1.31391 3.68879 0.862183 3.34015C0.634462 3.16429 0.420115 2.97115 0.220627 2.76112C-0.0498144 2.4766 -0.0695031 2.07996 0.171591 1.81656C0.411571 1.55508 0.777856 1.54624 1.06947 1.80773C1.30722 2.02083 1.53234 2.24776 1.79535 2.43053C2.34144 2.8095 2.75082 2.77379 3.21926 2.29652C3.56771 1.94135 3.85784 1.53434 4.1684 1.14615C4.63908 0.557907 5.15804 0.0552916 5.94893 0H5.98608C6.27881 0.0410847 6.57117 0.0733381 6.84644 0.204656C7.31749 0.429278 7.69269 0.773698 8.0222 1.17763C8.33276 1.55776 8.61174 1.96515 8.94794 2.32301C9.07833 2.46163 9.21652 2.59026 9.40709 2.62981C9.67271 2.68548 9.87145 2.55493 10.0509 2.37255C10.4134 2.00432 10.7013 1.5712 11.0305 1.17379C11.363 0.77293 11.7337 0.42467 12.2074 0.202736C12.483 0.0733381 12.7746 0.037629 13.0677 0H13.1049C13.5488 0.038013 13.9392 0.208495 14.2769 0.507607C14.5028 0.707655 14.6985 0.935733 14.885 1.17418C15.2142 1.59501 15.5125 2.04464 15.9025 2.41056C16.3123 2.7953 16.6767 2.81641 17.1422 2.50348C17.4126 2.32186 17.647 2.09724 17.8788 1.86724C18.2971 1.45256 18.7336 1.53357 18.9996 2.06806V2.45126L19 2.45164Z" fill="#9BA4C2"/>
<path d="M19 8.42698C18.8897 8.71265 18.6549 8.88928 18.4472 9.08625C18.1363 9.38114 17.7949 9.63226 17.4067 9.81119C16.5891 10.1882 15.7417 10.0212 15.0467 9.35426C14.6729 8.99564 14.3713 8.57519 14.0574 8.16473C13.8962 7.95393 13.7301 7.74889 13.5455 7.55959C13.2535 7.2601 13.0295 7.2144 12.6082 7.43442C12.3095 7.59031 12.103 7.85947 11.8924 8.11903C11.5517 8.53948 11.2501 8.99525 10.8518 9.36425C10.5071 9.68371 10.1152 9.89873 9.64377 9.93022C9.09285 9.96708 8.6285 9.7559 8.22321 9.38729C7.80306 9.00524 7.48804 8.52719 7.13178 8.08678C6.9531 7.866 6.77144 7.64406 6.53332 7.49086C6.09014 7.20519 5.79963 7.23514 5.46827 7.57841C5.13579 7.92283 4.85792 8.31524 4.56073 8.69038C4.28137 9.04325 3.98307 9.37538 3.60861 9.62074C2.87642 10.1007 2.1275 10.0811 1.37599 9.66912C0.924259 9.42146 0.535685 9.08587 0.183145 8.70612C-0.0601783 8.44387 -0.0594353 8.0599 0.173858 7.80764C0.408265 7.55422 0.77715 7.53694 1.04351 7.77423C1.29574 7.99924 1.53275 8.2419 1.81285 8.43351C2.34333 8.79636 2.73376 8.76449 3.19255 8.30756C3.58112 7.92091 3.89391 7.46667 4.24088 7.04315C4.48123 6.7498 4.73867 6.47257 5.06186 6.2756C5.78812 5.83365 6.49654 5.94961 7.18082 6.37965C7.76442 6.74673 8.14259 7.32614 8.56609 7.85755C8.70354 8.02995 8.84284 8.20159 8.99553 8.35902C9.35475 8.72993 9.69875 8.72955 10.0583 8.35902C10.3827 8.02458 10.6509 7.63984 10.9399 7.2743C11.2712 6.85501 11.6368 6.4791 12.113 6.2372C12.921 5.82674 13.7086 5.9473 14.3728 6.57932C14.7249 6.91452 14.9984 7.31884 15.2989 7.69897C15.5214 7.98042 15.7365 8.26878 16.014 8.4984C16.2989 8.73454 16.6013 8.77255 16.9297 8.60783C17.1712 8.48688 17.3829 8.32254 17.5828 8.14092C17.6801 8.05222 17.7689 7.95393 17.8659 7.86485C18.3142 7.45208 18.7002 7.51351 18.9996 8.04339V8.42659L19 8.42698Z" fill="#9BA4C2"/>
<path d="M19.0001 14.4411C18.5001 15.1338 17.879 15.6682 17.0687 15.9144C16.3228 16.1409 15.672 15.9017 15.0991 15.3872C14.7091 15.0366 14.4082 14.6066 14.0887 14.193C13.9074 13.9584 13.7295 13.7211 13.517 13.5157C13.2588 13.2661 13.0077 13.2266 12.6852 13.379C12.3839 13.5215 12.1696 13.7691 11.9601 14.0214C11.6023 14.4518 11.2884 14.9199 10.8883 15.3138C10.018 16.1712 8.84814 16.1236 7.99484 15.143C7.68131 14.7828 7.39526 14.3969 7.09399 14.0252C6.89116 13.7749 6.67867 13.5322 6.38631 13.3898C6.08095 13.2408 5.79453 13.2469 5.53338 13.5053C5.13886 13.8955 4.82644 14.357 4.47316 14.7832C4.12508 15.2033 3.74876 15.5884 3.2428 15.8038C2.46231 16.1363 1.75574 15.929 1.08595 15.4778C0.758302 15.2574 0.466686 14.9917 0.195502 14.7014C-0.0493075 14.4392 -0.0615665 14.059 0.162811 13.8029C0.396104 13.5364 0.763131 13.5134 1.04435 13.7599C1.2795 13.9661 1.49942 14.1892 1.75426 14.3731C2.34789 14.8012 2.79553 14.7532 3.29072 14.2003C3.63509 13.816 3.93896 13.3967 4.26624 12.9974C4.57234 12.6238 4.90928 12.2824 5.36138 12.1073C6.02262 11.8512 6.63632 12.0079 7.21175 12.3861C7.76043 12.7466 8.13043 13.2876 8.52941 13.7987C8.67689 13.9876 8.82697 14.1735 8.99488 14.3439C9.36117 14.7156 9.6929 14.716 10.057 14.3439C10.3917 14.0018 10.664 13.6048 10.9626 13.2308C11.2557 12.8637 11.5741 12.5243 11.9816 12.2962C12.9486 11.7552 13.8179 11.9199 14.5679 12.7662C14.9312 13.1763 15.2373 13.6344 15.5925 14.0514C15.6861 14.1616 15.7819 14.2706 15.8856 14.3708C16.3061 14.7778 16.6976 14.8039 17.1713 14.4614C17.4098 14.289 17.6457 14.1093 17.8351 13.882C18.197 13.4481 18.7475 13.4904 19.0001 14.0199V14.4411Z" fill="#9BA4C2"/>
</g>
<defs>
<clipPath id="clip0_1_346">
<rect width="19" height="16" fill="white"/>
</clipPath>
</defs>
</svg>
