<svg width="19" height="16" viewBox="0 0 19 16" fill="none" xmlns="http://www.w3.org/2000/svg">
<path d="M19 2.45164C18.4149 3.28179 17.6778 3.88961 16.6648 4.01593C16.0314 4.09465 15.5024 3.79246 15.0407 3.36242C14.6662 3.01416 14.3791 2.58834 14.064 2.18709C13.8854 1.95901 13.7093 1.72901 13.5035 1.52513C13.2572 1.28131 12.9838 1.26096 12.6847 1.4061C12.3972 1.54548 12.1817 1.77202 11.9822 2.01776C11.6609 2.41401 11.3715 2.83753 11.0223 3.20883C10.6846 3.56784 10.2968 3.84084 9.80347 3.92109C9.18977 4.02131 8.67452 3.80782 8.21983 3.3989C7.81602 3.03566 7.51958 2.57528 7.17707 2.15676C7.00544 1.94711 6.83716 1.73593 6.6243 1.56659C6.17034 1.20566 5.81111 1.22601 5.4166 1.648C5.00388 2.08918 4.67177 2.60139 4.26722 3.04987C3.75643 3.61622 3.16539 4.02246 2.37933 3.98867C1.80167 3.96371 1.31391 3.68879 0.862183 3.34015C0.634462 3.16429 0.420115 2.97115 0.220627 2.76112C-0.0498144 2.4766 -0.0695031 2.07996 0.171591 1.81656C0.411571 1.55508 0.777856 1.54624 1.06947 1.80773C1.30722 2.02083 1.53234 2.24776 1.79535 2.43053C2.34144 2.8095 2.75082 2.77379 3.21926 2.29652C3.56771 1.94135 3.85784 1.53434 4.1684 1.14615C4.63908 0.557907 5.15804 0.0552916 5.94893 0H5.98608C6.27881 0.0410847 6.57117 0.0733381 6.84644 0.204656C7.31749 0.429278 7.69269 0.773698 8.0222 1.17763C8.33276 1.55776 8.61174 1.96515 8.94794 2.32301C9.07833 2.46163 9.21652 2.59026 9.40709 2.62981C9.67271 2.68548 9.87145 2.55493 10.0509 2.37255C10.4134 2.00432 10.7013 1.5712 11.0305 1.17379C11.363 0.77293 11.7337 0.42467 12.2074 0.202736C12.483 0.0733381 12.7746 0.037629 13.0677 0H13.1049C13.5488 0.038013 13.9392 0.208495 14.2769 0.507607C14.5028 0.707655 14.6985 0.935733 14.885 1.17418C15.2142 1.59501 15.5125 2.04464 15.9025 2.41056C16.3123 2.7953 16.6767 2.81641 17.1422 2.50348C17.4126 2.32186 17.647 2.09724 17.8788 1.86724C18.2971 1.45256 18.7336 1.53357 18.9996 2.06806V2.45126L19 2.45164Z" fill="#9E3FFD"/>
<path d="M18.9998 8.42698C18.8894 8.71265 18.6546 8.88928 18.447 9.08625C18.1361 9.38114 17.7947 9.63226 17.4065 9.81119C16.5888 10.1882 15.7415 10.0212 15.0464 9.35426C14.6727 8.99564 14.371 8.57519 14.0571 8.16473C13.8959 7.95393 13.7299 7.74889 13.5452 7.55959C13.2532 7.2601 13.0292 7.2144 12.608 7.43442C12.3093 7.59031 12.1028 7.85947 11.8921 8.11903C11.5515 8.53948 11.2498 8.99525 10.8516 9.36425C10.5069 9.68371 10.1149 9.89873 9.64352 9.93022C9.09261 9.96708 8.62825 9.7559 8.22296 9.38729C7.80281 9.00524 7.48779 8.52719 7.13154 8.08678C6.95285 7.866 6.7712 7.64406 6.53307 7.49086C6.08989 7.20519 5.79939 7.23514 5.46803 7.57841C5.13555 7.92283 4.85768 8.31524 4.56049 8.69038C4.28113 9.04325 3.98283 9.37538 3.60837 9.62074C2.87617 10.1007 2.12726 10.0811 1.37574 9.66912C0.924014 9.42146 0.53544 9.08587 0.182901 8.70612C-0.0604224 8.44387 -0.0596794 8.0599 0.173614 7.80764C0.408021 7.55422 0.776906 7.53694 1.04326 7.77423C1.2955 7.99924 1.53251 8.2419 1.81261 8.43351C2.34309 8.79636 2.73352 8.76449 3.19231 8.30756C3.58088 7.92091 3.89367 7.46667 4.24064 7.04315C4.48099 6.7498 4.73843 6.47257 5.06162 6.2756C5.78787 5.83365 6.4963 5.94961 7.18057 6.37965C7.76418 6.74673 8.14235 7.32614 8.56584 7.85755C8.70329 8.02995 8.8426 8.20159 8.99528 8.35902C9.35451 8.72993 9.6985 8.72955 10.0581 8.35902C10.3824 8.02458 10.6506 7.63984 10.9396 7.2743C11.271 6.85501 11.6365 6.4791 12.1128 6.2372C12.9208 5.82674 13.7083 5.9473 14.3725 6.57932C14.7247 6.91452 14.9981 7.31884 15.2986 7.69897C15.5212 7.98042 15.7363 8.26878 16.0138 8.4984C16.2987 8.73454 16.6011 8.77255 16.9295 8.60783C17.1709 8.48688 17.3827 8.32254 17.5825 8.14092C17.6799 8.05222 17.7687 7.95393 17.8656 7.86485C18.314 7.45208 18.7 7.51351 18.9994 8.04339V8.42659L18.9998 8.42698Z" fill="#9E3FFD"/>
<path d="M19.0002 14.4411C18.5002 15.1337 17.8791 15.6682 17.0689 15.9144C16.3229 16.1409 15.6721 15.9017 15.0993 15.3872C14.7092 15.0366 14.4083 14.6066 14.0888 14.193C13.9075 13.9584 13.7296 13.7211 13.5171 13.5157C13.2589 13.2661 13.0078 13.2266 12.6853 13.379C12.3841 13.5215 12.1697 13.7691 11.9602 14.0214C11.6025 14.4518 11.2886 14.9199 10.8885 15.3138C10.0181 16.1712 8.84827 16.1236 7.99496 15.143C7.68143 14.7828 7.39539 14.3969 7.09411 14.0252C6.89128 13.7749 6.67879 13.5322 6.38643 13.3898C6.08107 13.2408 5.79465 13.2469 5.5335 13.5053C5.13898 13.8954 4.82656 14.357 4.47328 14.7832C4.1252 15.2032 3.74888 15.5884 3.24292 15.8038C2.46243 16.1363 1.75586 15.9289 1.08607 15.4778C0.758424 15.2574 0.466808 14.9917 0.195624 14.7014C-0.0491854 14.4391 -0.0614445 14.059 0.162933 13.8029C0.396226 13.5364 0.763254 13.5134 1.04447 13.7599C1.27962 13.9661 1.49954 14.1892 1.75438 14.3731C2.34801 14.8012 2.79565 14.7532 3.29084 14.2003C3.63521 13.816 3.93908 13.3967 4.26636 12.9973C4.57247 12.6237 4.9094 12.2824 5.3615 12.1073C6.02275 11.8512 6.63644 12.0079 7.21187 12.3861C7.76056 12.7466 8.13056 13.2876 8.52953 13.7987C8.67701 13.9876 8.82709 14.1734 8.995 14.3439C9.36129 14.7156 9.69302 14.716 10.0571 14.3439C10.3918 14.0018 10.6641 13.6048 10.9628 13.2308C11.2559 12.8637 11.5742 12.5243 11.9817 12.2962C12.9487 11.7552 13.818 11.9199 14.568 12.7662C14.9313 13.1763 15.2374 13.6343 15.5926 14.0513C15.6862 14.1615 15.782 14.2706 15.8857 14.3708C16.3062 14.7778 16.6978 14.8039 17.1714 14.4614C17.4099 14.289 17.6458 14.1093 17.8352 13.882C18.1971 13.4481 18.7476 13.4904 19.0002 14.0199V14.4411Z" fill="#9E3FFD"/>
</svg>
