<svg width="23" height="22" viewBox="0 0 23 22" fill="none" xmlns="http://www.w3.org/2000/svg">
<path d="M10.7744 0C10.9307 0 11.0866 0 11.2429 0C11.3913 0.0699486 11.5406 0.136611 11.687 0.209846C14.8633 1.79707 18.0387 3.38476 21.2146 4.97292C21.3193 5.02503 21.4258 5.07526 21.5254 5.13629C22.1741 5.53345 22.1962 6.43339 21.5667 6.85965C21.4639 6.9296 21.3512 6.98547 21.2395 7.04133C20.3541 7.48638 19.4673 7.92907 18.5819 8.37458C18.5143 8.40885 18.4035 8.4234 18.3979 8.50133C18.3904 8.60414 18.5134 8.61072 18.5842 8.64639C19.5105 9.11444 20.4381 9.58061 21.3672 10.0435C21.6526 10.1857 21.8699 10.3857 21.9695 10.6946C22.1333 11.2044 21.9136 11.6946 21.3944 11.9579C20.4475 12.4377 19.4969 12.91 18.549 13.3879C18.4899 13.4179 18.3908 13.4273 18.3941 13.509C18.3974 13.585 18.4932 13.5977 18.5537 13.6287C19.0204 13.8644 19.4889 14.0972 19.956 14.3319C20.4578 14.5845 20.962 14.8329 21.4596 15.0934C21.831 15.2882 22.0272 15.6126 22.0188 16.0267C22.0108 16.4304 21.8084 16.7374 21.4441 16.9276C21.3751 16.9637 21.3052 16.9989 21.2357 17.0341C18.0392 18.6326 14.8403 20.2273 11.6485 21.8348C11.203 22.0592 10.8068 22.0545 10.3613 21.8301C7.16196 20.2184 3.95747 18.6181 0.749698 17.0229C0.385403 16.8416 0.117345 16.6022 -0.000488281 16.2088V15.8342C0.0957497 15.4427 0.342213 15.1915 0.702284 15.0155C1.62617 14.5639 2.5416 14.0949 3.45985 13.6315C3.52041 13.601 3.61806 13.5874 3.62228 13.5142C3.62745 13.4203 3.51807 13.4118 3.45375 13.379C2.54207 12.9194 1.63133 12.4579 0.714489 12.0091C0.357705 11.8345 0.103261 11.5861 -0.000488281 11.1965V10.8218C0.10373 10.4331 0.355827 10.1848 0.71402 10.0097C1.62429 9.56559 2.52752 9.10599 3.43169 8.64921C3.50351 8.61306 3.62463 8.60461 3.62088 8.50415C3.61759 8.42434 3.5068 8.40979 3.4392 8.37599C2.52799 7.91593 1.6196 7.45023 0.702284 7.00237C0.341743 6.82632 0.0957497 6.57517 -0.000488281 6.18364V5.80902C0.116875 5.41562 0.382116 5.17244 0.74876 4.99592C1.64776 4.56309 2.5355 4.10678 3.4284 3.66174C5.87707 2.44069 8.32574 1.22058 10.7744 0ZM11.0509 9.82191C11.0918 9.80501 11.165 9.77872 11.234 9.74445C13.6423 8.54077 16.0506 7.33615 18.4584 6.13106C18.5185 6.10102 18.6143 6.08928 18.6143 6.00994C18.6143 5.92967 18.5166 5.91981 18.457 5.89023C16.0421 4.68092 13.6263 3.47396 11.2124 2.26324C11.0739 2.19376 10.9598 2.18765 10.8181 2.25901C8.39756 3.47349 5.97425 4.68327 3.55281 5.89587C3.49506 5.92497 3.39789 5.93342 3.4054 6.02074C3.41103 6.086 3.49553 6.09914 3.54999 6.12637C5.96486 7.33474 8.3802 8.54218 10.796 9.74961C10.8655 9.78435 10.9336 9.82378 11.0509 9.82191ZM6.02119 9.67591C5.96016 9.69938 5.90054 9.71769 5.84562 9.74492C5.07055 10.1313 4.29595 10.5186 3.52135 10.9063C3.47394 10.9298 3.40258 10.9425 3.39882 11.0021C3.39413 11.08 3.47816 11.0899 3.53027 11.1157C5.95829 12.3311 8.38771 13.5442 10.8153 14.761C10.9556 14.8314 11.0725 14.8282 11.211 14.7587C13.6315 13.5447 16.0539 12.3349 18.4753 11.1232C18.5293 11.0965 18.6143 11.0838 18.6194 11.0176C18.6265 10.9293 18.5284 10.9218 18.4706 10.8927C17.7388 10.5242 17.0026 10.1646 16.2745 9.78858C16.0891 9.69281 15.9412 9.68999 15.7525 9.78482C14.3873 10.4744 13.0123 11.1444 11.6504 11.8401C11.2058 12.0673 10.8063 12.0621 10.3627 11.8349C9.00128 11.1387 7.62719 10.466 6.25827 9.78482C6.18174 9.74679 6.10335 9.71346 6.02119 9.67591ZM18.6218 16.0013C18.5861 15.93 18.5134 15.9135 18.4523 15.883C17.72 15.5154 16.9848 15.1535 16.2567 14.7784C16.0778 14.6864 15.9332 14.6892 15.7544 14.7798C14.3822 15.4727 13.0015 16.1497 11.6312 16.8463C11.204 17.0637 10.811 17.0618 10.3838 16.8445C9.01396 16.1469 7.63376 15.4694 6.26108 14.777C6.09161 14.6915 5.95218 14.6831 5.77989 14.7714C5.0513 15.146 4.31567 15.507 3.58332 15.875C3.51666 15.9088 3.40727 15.9215 3.40587 16.006C3.40446 16.0929 3.51525 16.1037 3.58144 16.137C5.97472 17.3355 8.37034 18.5298 10.7617 19.7325C10.942 19.8231 11.0828 19.8217 11.2622 19.7316C13.0461 18.8321 14.8342 17.9411 16.621 17.0473C17.235 16.7402 17.8495 16.4332 18.4631 16.1243C18.5223 16.0943 18.6007 16.0839 18.6218 16.0013Z" fill="#9BA4C2" stroke="white" stroke-width="0.5" stroke-linejoin="round"/>
</svg>
