<svg width="23" height="22" viewBox="0 0 23 22" fill="none" xmlns="http://www.w3.org/2000/svg">
<path d="M10.7744 0C10.9308 0 11.0866 0 11.2429 0C11.3913 0.0699486 11.5406 0.136611 11.687 0.209846C14.8634 1.79707 18.0387 3.38476 21.2146 4.97292C21.3193 5.02503 21.4259 5.07526 21.5254 5.13629C22.1742 5.53345 22.1962 6.43339 21.5667 6.85965C21.4639 6.9296 21.3512 6.98547 21.2395 7.04133C20.3541 7.48638 19.4673 7.92907 18.5819 8.37458C18.5143 8.40885 18.4035 8.4234 18.3979 8.50133C18.3904 8.60414 18.5134 8.61072 18.5843 8.64639C19.5105 9.11444 20.4381 9.58061 21.3672 10.0435C21.6526 10.1857 21.87 10.3857 21.9695 10.6946C22.1333 11.2044 21.9136 11.6946 21.3944 11.9579C20.4475 12.4377 19.4969 12.91 18.549 13.3879C18.4899 13.4179 18.3908 13.4273 18.3941 13.509C18.3974 13.585 18.4932 13.5977 18.5537 13.6287C19.0204 13.8644 19.4889 14.0972 19.956 14.3319C20.4578 14.5845 20.962 14.8329 21.4597 15.0934C21.831 15.2882 22.0272 15.6126 22.0188 16.0267C22.0108 16.4304 21.8085 16.7374 21.4442 16.9276C21.3752 16.9637 21.3052 16.9989 21.2357 17.0341C18.0392 18.6326 14.8404 20.2273 11.6485 21.8348C11.203 22.0592 10.8068 22.0545 10.3613 21.8301C7.16198 20.2184 3.95749 18.6181 0.749714 17.0229C0.385418 16.8416 0.11736 16.6022 -0.000473022 16.2088V15.8342C0.0957649 15.4427 0.342228 15.1915 0.702299 15.0155C1.62618 14.5639 2.54162 14.0949 3.45987 13.6315C3.52043 13.601 3.61808 13.5874 3.6223 13.5142C3.62746 13.4203 3.51808 13.4118 3.45377 13.379C2.54209 12.9194 1.63135 12.4579 0.714505 12.0091C0.35772 11.8345 0.103276 11.5861 -0.000473022 11.1965V10.8218C0.103746 10.4331 0.355842 10.1848 0.714035 10.0097C1.62431 9.56559 2.52753 9.10599 3.4317 8.64921C3.50353 8.61306 3.62465 8.60461 3.62089 8.50415C3.61761 8.42434 3.50681 8.40979 3.43921 8.37599C2.528 7.91593 1.61961 7.45023 0.702299 7.00237C0.341759 6.82632 0.0957649 6.57517 -0.000473022 6.18364V5.80902C0.11689 5.41562 0.382132 5.17244 0.748775 4.99592C1.64778 4.56309 2.53551 4.10678 3.42842 3.66174C5.87709 2.44069 8.32575 1.22058 10.7744 0ZM11.0509 9.82191C11.0918 9.80501 11.165 9.77872 11.234 9.74445C13.6423 8.54077 16.0506 7.33615 18.4584 6.13106C18.5185 6.10102 18.6143 6.08928 18.6143 6.00994C18.6143 5.92967 18.5167 5.91981 18.457 5.89023C16.0422 4.68092 13.6264 3.47396 11.2124 2.26324C11.0739 2.19376 10.9599 2.18765 10.8181 2.25901C8.39758 3.47349 5.97426 4.68327 3.55282 5.89587C3.49508 5.92497 3.3979 5.93342 3.40541 6.02074C3.41105 6.086 3.49555 6.09914 3.55 6.12637C5.96487 7.33474 8.38021 8.54218 10.796 9.74961C10.8655 9.78435 10.9336 9.82378 11.0509 9.82191ZM6.02121 9.67591C5.96018 9.69938 5.90056 9.71769 5.84563 9.74492C5.07056 10.1313 4.29597 10.5186 3.52137 10.9063C3.47395 10.9298 3.4026 10.9425 3.39884 11.0021C3.39415 11.08 3.47818 11.0899 3.53029 11.1157C5.9583 12.3311 8.38772 13.5442 10.8153 14.761C10.9556 14.8314 11.0725 14.8282 11.211 14.7587C13.6315 13.5447 16.0539 12.3349 18.4753 11.1232C18.5293 11.0965 18.6143 11.0838 18.6195 11.0176C18.6265 10.9293 18.5284 10.9218 18.4706 10.8927C17.7388 10.5242 17.0027 10.1646 16.2745 9.78858C16.0891 9.69281 15.9412 9.68999 15.7525 9.78482C14.3873 10.4744 13.0123 11.1444 11.6504 11.8401C11.2059 12.0673 10.8063 12.0621 10.3627 11.8349C9.0013 11.1387 7.62721 10.466 6.25828 9.78482C6.18176 9.74679 6.10336 9.71346 6.02121 9.67591ZM18.6218 16.0013C18.5861 15.93 18.5134 15.9135 18.4523 15.883C17.72 15.5154 16.9848 15.1535 16.2567 14.7784C16.0778 14.6864 15.9332 14.6892 15.7544 14.7798C14.3822 15.4727 13.0015 16.1497 11.6312 16.8463C11.204 17.0637 10.811 17.0618 10.3838 16.8445C9.01397 16.1469 7.63378 15.4694 6.2611 14.777C6.09162 14.6915 5.9522 14.6831 5.77991 14.7714C5.05132 15.146 4.31568 15.507 3.58334 15.875C3.51667 15.9088 3.40729 15.9215 3.40588 16.006C3.40447 16.0929 3.51526 16.1037 3.58146 16.137C5.97473 17.3355 8.37035 18.5298 10.7617 19.7325C10.942 19.8231 11.0829 19.8217 11.2622 19.7316C13.0461 18.8321 14.8343 17.9411 16.621 17.0473C17.235 16.7402 17.8496 16.4332 18.4631 16.1243C18.5223 16.0943 18.6007 16.0839 18.6218 16.0013Z" fill="#9E3FFD" stroke="white" stroke-width="0.5" stroke-linejoin="round"/>
</svg>
