<svg width="29" height="33" viewBox="0 0 29 33" fill="none" xmlns="http://www.w3.org/2000/svg">
<path opacity="0.6" d="M9.76015 5.1867C8.239 4.36478 6.38778 4.31809 4.87748 5.16064C4.80039 5.20407 4.7233 5.24859 4.64839 5.29636L3.42908 6.05639L10.5538 9.90324L14.2389 7.60577L9.76123 5.18887L9.76015 5.1867Z" fill="#9E3FFD"/>
<path d="M21.7589 23.9443L18.4636 22.1648L21.7589 23.9443Z" fill="#9E3FFD"/>
<path d="M28.6339 9.2322C28.6003 8.07043 27.9499 7.01399 26.9271 6.46134L21.1085 3.32023L15.6808 0.390849C14.658 -0.161804 13.4181 -0.125974 12.4279 0.484224L7.49958 3.52001H7.49632L3.42798 6.05526L4.64729 5.29523C4.72329 5.24854 4.79929 5.20294 4.87638 5.15951C6.38668 4.31805 8.2379 4.36473 9.75905 5.18557L14.2367 7.60247L28.8109 15.471L28.6328 9.23111L28.6339 9.2322Z" fill="#9E3FFD"/>
<path d="M3.40511 6.04233L1.54737 7.18672C1.40839 7.2725 1.27919 7.36804 1.15649 7.47119L3.42791 6.05536L3.40511 6.04341V6.04233Z" fill="#9E3FFD"/>
<path d="M25.5873 26.0116L25.5949 26.0159L27.4526 24.8716C27.5536 24.8097 27.6502 24.7402 27.7425 24.6685L25.5873 26.0116Z" fill="#9E3FFD"/>
<path opacity="0.6" d="M21.7588 23.9443L18.4635 22.1647L14.7784 24.4622L18.2996 26.3634C19.7588 27.3568 19.7664 29.5544 18.2496 30.5403L21.8869 28.2993C23.5329 27.2808 23.4624 24.8629 21.7588 23.9432V23.9443Z" fill="#9E3FFD"/>
<path d="M18.2996 26.3633C18.2268 26.3134 18.153 26.2634 18.0727 26.22L14.7774 24.4404L14.76 24.4513L14.7796 24.4621L18.3007 26.3633H18.2996Z" fill="#9E3FFD"/>
<path d="M18.1964 30.574L18.2008 30.5762C18.2181 30.5653 18.2322 30.5523 18.2496 30.5414L18.1964 30.574Z" fill="#9E3FFD"/>
<path d="M18.2996 26.3634L14.7784 24.4622L14.7589 24.4514L0.187988 16.5851L0.366053 22.8249C0.399712 23.9867 1.05008 25.0431 2.07287 25.5958L7.90775 28.7456L13.3192 31.6674C14.342 32.22 15.5819 32.1842 16.5721 31.574L18.1964 30.5729L18.2496 30.5403C19.7664 29.5534 19.7588 27.3569 18.2996 26.3634Z" fill="#9E3FFD"/>
<path d="M10.5527 9.90106L3.42796 6.0553L1.15655 7.47113C0.406288 8.10413 -0.0269304 9.05091 0.00129941 10.0509C0.039301 11.4005 0.794991 12.6274 1.9839 13.268L3.68203 14.1855L8.81985 16.9596L15.7209 12.6926L10.5527 9.90215V9.90106Z" fill="#9E3FFD"/>
<path d="M27.0161 18.7902L25.3332 17.8815L19.9576 14.9792L13.0565 19.2463L18.4625 22.1648L21.7578 23.9443C23.4614 24.864 23.5319 27.282 21.8859 28.3004L25.5873 26.0116L27.7425 24.6675C28.5558 24.0355 29.0281 23.0508 28.9987 22.0073C28.9597 20.6577 28.2051 19.4308 27.0161 18.7892V18.7902Z" fill="#9E3FFD"/>
</svg>
