<svg width="21" height="20" viewBox="0 0 21 20" fill="none" xmlns="http://www.w3.org/2000/svg">
<g clip-path="url(#clip0_313_213)">
<path d="M8.66409 3.03691C8.66409 1.95996 9.54026 1.08379 10.6172 1.08379H11.2931L11.0892 0.516992C10.9746 0.198242 10.6742 0 10.354 0C10.2653 0 10.1751 0.0152344 10.0869 0.0473437L3.2567 2.53332C2.85065 2.68113 2.64166 3.13047 2.79034 3.53621L3.15123 4.52129H8.66409V3.03691Z" fill="#9E3FFD"/>
<path d="M10.6172 2.25562C10.1857 2.25562 9.83594 2.60538 9.83594 3.03687V4.52124H16.6719V3.03687C16.6719 2.60538 16.3221 2.25562 15.8906 2.25562H10.6172Z" fill="#9E3FFD"/>
<path d="M18.7422 15.7908H16.0078C14.3924 15.7908 13.0781 14.4765 13.0781 12.8611C13.0781 11.2457 14.3924 9.9314 16.0078 9.9314H18.7422V7.25562C18.7422 6.39269 18.0426 5.69312 17.1797 5.69312H2.0625C1.19957 5.69312 0.5 6.39269 0.5 7.25562V18.4375C0.5 19.3004 1.19957 20 2.0625 20H17.1797C18.0426 20 18.7422 19.3004 18.7422 18.4375V15.7908Z" fill="#9E3FFD"/>
<path d="M19.9141 11.1033H16.0078C15.0386 11.1033 14.25 11.8918 14.25 12.8611C14.25 13.8303 15.0386 14.6189 16.0078 14.6189H19.9141C20.2371 14.6189 20.5 14.356 20.5 14.033V11.6892C20.5 11.3661 20.2371 11.1033 19.9141 11.1033ZM16.0078 13.447C15.6842 13.447 15.4219 13.1847 15.4219 12.8611C15.4219 12.5375 15.6842 12.2751 16.0078 12.2751C16.3314 12.2751 16.5938 12.5375 16.5938 12.8611C16.5938 13.1847 16.3314 13.447 16.0078 13.447Z" fill="#9E3FFD"/>
</g>
<defs>
<clipPath id="clip0_313_213">
<rect width="20" height="20" fill="white" transform="translate(0.5)"/>
</clipPath>
</defs>
</svg>
