<svg width="39" height="40" viewBox="0 0 39 40" fill="none" xmlns="http://www.w3.org/2000/svg">
<circle cx="19.5" cy="20" r="19" fill="white" stroke="#9E3FFD"/>
<path opacity="0.6" d="M15.0772 11.2925C13.8183 10.6122 12.2862 10.5736 11.0363 11.2709C10.9725 11.3068 10.9087 11.3437 10.8467 11.3832L9.83765 12.0122L15.734 15.1958L18.7837 13.2944L15.0781 11.2942L15.0772 11.2925Z" fill="#9E3FFD"/>
<path d="M25.0072 26.816L22.28 25.3433L25.0072 26.816Z" fill="#9E3FFD"/>
<path d="M30.697 14.6405C30.6691 13.679 30.1309 12.8047 29.2845 12.3473L24.4691 9.7478L19.9772 7.32348C19.1307 6.86611 18.1046 6.89577 17.2851 7.40076L13.2065 9.91313H13.2038L9.83691 12.0113L10.846 11.3823C10.9089 11.3436 10.9718 11.3059 11.0356 11.27C12.2855 10.5736 13.8175 10.6122 15.0764 11.2915L18.7821 13.2917L30.8435 19.8036L30.6961 14.6396L30.697 14.6405Z" fill="#9E3FFD"/>
<path d="M9.81795 12.0005L8.28051 12.9476C8.1655 13.0186 8.05857 13.0977 7.95703 13.1831L9.83682 12.0113L9.81795 12.0014V12.0005Z" fill="#9E3FFD"/>
<path d="M28.1755 28.5269L28.1818 28.5305L29.7193 27.5834C29.8028 27.5322 29.8828 27.4746 29.9592 27.4153L28.1755 28.5269Z" fill="#9E3FFD"/>
<path opacity="0.6" d="M25.0073 26.816L22.2802 25.3432L19.2305 27.2446L22.1445 28.818C23.3522 29.6401 23.3585 31.4588 22.1032 32.2747L25.1133 30.4201C26.4756 29.5773 26.4172 27.5762 25.0073 26.8151V26.816Z" fill="#9E3FFD"/>
<path d="M22.1444 28.8179C22.0842 28.7766 22.0231 28.7352 21.9566 28.6993L19.2295 27.2266L19.2151 27.2355L19.2313 27.2445L22.1453 28.8179H22.1444Z" fill="#9E3FFD"/>
<path d="M22.0591 32.3026L22.0627 32.3044C22.0771 32.2954 22.0887 32.2847 22.1031 32.2757L22.0591 32.3026Z" fill="#9E3FFD"/>
<path d="M22.1444 28.818L19.2304 27.2446L19.2142 27.2357L7.15552 20.7256L7.30288 25.8896C7.33074 26.8511 7.86897 27.7254 8.71542 28.1827L13.5443 30.7895L18.0227 33.2075C18.8692 33.6649 19.8953 33.6352 20.7148 33.1302L22.059 32.3017L22.1031 32.2748C23.3584 31.458 23.3521 29.6402 22.1444 28.818Z" fill="#9E3FFD"/>
<path d="M15.7333 15.194L9.83693 12.0113L7.95714 13.183C7.33624 13.7069 6.97771 14.4904 7.00108 15.318C7.03253 16.4349 7.65792 17.4503 8.64185 17.9804L10.0472 18.7397L14.2992 21.0355L20.0104 17.5042L15.7333 15.1949V15.194Z" fill="#9E3FFD"/>
<path d="M29.358 22.5506L27.9652 21.7985L23.5164 19.3966L17.8052 22.9279L22.2791 25.3433L25.0062 26.816C26.4161 27.5771 26.4745 29.5782 25.1123 30.421L28.1755 28.5269L29.9591 27.4145C30.6321 26.8915 31.023 26.0765 30.9987 25.213C30.9664 24.0961 30.3419 23.0807 29.358 22.5497V22.5506Z" fill="#9E3FFD"/>
</svg>
