<svg width="24" height="27" viewBox="0 0 24 27" fill="none" xmlns="http://www.w3.org/2000/svg">
<path opacity="0.6" d="M8.0774 4.29248C6.81851 3.61227 5.28647 3.57363 4.03657 4.27092C3.97277 4.30686 3.90898 4.3437 3.84697 4.38324L2.83789 5.01223L8.73425 8.19583L11.784 6.29448L8.0783 4.29428L8.0774 4.29248Z" fill="#9E3FFD"/>
<path d="M18.0074 19.816L15.2803 18.3433L18.0074 19.816Z" fill="#9E3FFD"/>
<path d="M23.697 7.64046C23.6691 6.679 23.1309 5.8047 22.2845 5.34733L17.4691 2.7478L12.9772 0.323482C12.1307 -0.133885 11.1046 -0.104233 10.2851 0.400758L6.20652 2.91313H6.20382L2.83691 5.01127L3.846 4.38228C3.9089 4.34364 3.9718 4.3059 4.03559 4.26996C5.28549 3.57358 6.81754 3.61221 8.07642 4.29153L11.7821 6.29172L23.8435 12.8036L23.6961 7.63956L23.697 7.64046Z" fill="#9E3FFD"/>
<path d="M2.81795 5.00061L1.28051 5.94769C1.1655 6.01868 1.05857 6.09775 0.957031 6.18312L2.83682 5.01139L2.81795 5.00151V5.00061Z" fill="#9E3FFD"/>
<path d="M21.1758 21.5268L21.1821 21.5304L22.7195 20.5833C22.8031 20.5321 22.883 20.4746 22.9594 20.4153L21.1758 21.5268Z" fill="#9E3FFD"/>
<path opacity="0.6" d="M18.0073 19.816L15.2802 18.3433L12.2305 20.2446L15.1445 21.818C16.3522 22.6402 16.3585 24.4589 15.1032 25.2748L18.1133 23.4201C19.4756 22.5773 19.4172 20.5762 18.0073 19.8151V19.816Z" fill="#9E3FFD"/>
<path d="M15.1442 21.8179C15.0839 21.7766 15.0228 21.7352 14.9564 21.6993L12.2292 20.2266L12.2148 20.2355L12.231 20.2445L15.1451 21.8179H15.1442Z" fill="#9E3FFD"/>
<path d="M15.0586 25.3026L15.0622 25.3044C15.0766 25.2954 15.0882 25.2846 15.1026 25.2756L15.0586 25.3026Z" fill="#9E3FFD"/>
<path d="M15.1442 21.818L12.2301 20.2446L12.214 20.2357L0.155273 13.7256L0.302637 18.8896C0.330493 19.8511 0.868731 20.7254 1.71518 21.1827L6.54404 23.7895L11.0225 26.2075C11.8689 26.6649 12.8951 26.6352 13.7146 26.1302L15.0588 25.3017L15.1028 25.2748C16.3581 24.458 16.3518 22.6402 15.1442 21.818Z" fill="#9E3FFD"/>
<path d="M8.73329 8.19393L2.83693 5.01123L0.957144 6.18295C0.336239 6.70681 -0.0222872 7.49036 0.00107538 8.31793C0.032525 9.43485 0.657923 10.4502 1.64185 10.9804L3.0472 11.7397L7.29919 14.0355L13.0104 10.5041L8.73329 8.19483V8.19393Z" fill="#9E3FFD"/>
<path d="M22.3585 15.5504L20.9657 14.7983L16.5169 12.3965L10.8057 15.9278L15.2796 18.3432L18.0067 19.8159C19.4166 20.577 19.475 22.5781 18.1128 23.4209L21.176 21.5268L22.9596 20.4143C23.6326 19.8914 24.0235 19.0764 23.9992 18.2129C23.9669 17.096 23.3424 16.0806 22.3585 15.5495V15.5504Z" fill="#9E3FFD"/>
</svg>
