<?xml version="1.0" encoding="utf-8"?>
<!-- Generator: Adobe Illustrator 26.0.1, SVG Export Plug-In . SVG Version: 6.00 Build 0)  -->
<svg version="1.1" id="Layer_1" xmlns="http://www.w3.org/2000/svg" xmlns:xlink="http://www.w3.org/1999/xlink" x="0px" y="0px"
	 viewBox="0 0 1920 1080" style="enable-background:new 0 0 1920 1080;" xml:space="preserve">
<style type="text/css">
	.st0{fill:#627EE9;}
	.st1{fill:#FEFEFE;}
	.st2{fill:#C0CBF6;}
	.st3{fill:#8197ED;}
	.st4{fill:#FDFDFE;}
</style>
<g>
	<path class="st0" d="M461.8,566.27c0-17.84,0-35.68,0-53.52c0.32-1.19,0.8-2.36,0.95-3.57c2.71-21.21,4.03-42.69,8.26-63.58
		c26.9-132.74,95.74-238.52,206.86-316C750.27,79.13,831.08,51,919.05,43.51c4.26-0.36,8.49-1.16,12.73-1.75
		c18.16,0,36.33,0,54.49,0c4.91,0.6,9.8,1.37,14.73,1.76c53.6,4.31,105.08,17.17,154.53,38.22
		c171.74,73.1,289.45,238.55,301.52,423.63c3.01,46.23,0.19,92.07-9.64,137.34c-23.94,110.32-78.31,202.91-164.21,276.17
		c-85.73,73.12-185.46,112.34-298.01,118.61c-58.54,3.26-115.85-4.05-171.8-21.42c-89.96-27.94-166.39-77.12-228.27-148.15
		c-71.56-82.14-111.87-177.84-121.52-286.4C463.15,576.42,462.41,571.35,461.8,566.27z M975.55,725.9
		c-1.25-0.75-2.48-1.53-3.74-2.26c-59.7-34.65-119.39-69.31-179.12-103.93c-15.83-9.18-31.74-18.2-47.62-27.3
		c-0.49-0.14-0.97-0.27-1.46-0.41c0.22,0.38,0.44,0.77,0.66,1.15c0.81,1.21,1.59,2.44,2.44,3.63
		C822,701,897.29,805.22,972.59,909.43c0.83,1.15,1.92,2.11,2.88,3.15c1.28-1.43,2.7-2.75,3.81-4.29
		c75.3-104.15,150.58-208.31,225.85-312.48c0.79-1.09,1.41-2.3,2.83-4.64c-2.77,1.51-4.31,2.31-5.81,3.18
		c-23.13,13.41-46.26,26.83-69.38,40.25C1080.36,665.04,1027.96,695.47,975.55,725.9z M743.98,544.79
		c-0.33,0.36-0.66,0.72-0.99,1.07c1.31,1.27,2.43,2.87,3.96,3.76c74.39,43.27,148.81,86.48,223.26,129.64
		c1.69,0.98,3.75,1.32,5.64,1.96c1.8-0.69,3.74-1.14,5.39-2.09c26.52-15.32,53-30.7,79.48-46.08
		c43.86-25.47,87.73-50.91,131.53-76.48c5.5-3.21,10.6-7.12,15.89-10.7c-0.63-1.13-1.22-2.29-1.89-3.39
		c-75.4-122.94-150.8-245.88-226.23-368.8c-1.08-1.76-2.52-3.29-3.8-4.93c-3.29-1.57-3.2,1.81-3.99,3.1
		C896.82,294.55,821.5,417.32,746.2,540.09c-0.91,1.49-1.56,3.15-2.34,4.73C743.86,544.81,743.98,544.79,743.98,544.79z"/>
	<path class="st1" d="M743.86,544.81c0.77-1.58,1.42-3.23,2.34-4.73c75.3-122.77,150.62-245.54,226.03-368.24
		c0.79-1.29,0.7-4.67,3.99-3.1c-0.23,2.73-0.66,5.45-0.66,8.18c-0.04,85.92-0.03,171.85-0.04,257.77c0,2.59-0.1,5.18-0.15,7.78
		c-3.27,1.41-6.56,2.79-9.81,4.24c-68.34,30.56-136.68,61.14-205.04,91.65C755.08,540.79,749.42,542.68,743.86,544.81z"/>
	<path class="st2" d="M975.37,442.47c0.05-2.59,0.15-5.18,0.15-7.78c0.01-85.92,0-171.85,0.04-257.77c0-2.73,0.43-5.45,0.66-8.18
		c1.28,1.64,2.72,3.17,3.8,4.93c75.43,122.92,150.84,245.86,226.23,368.8c0.68,1.1,1.26,2.26,1.89,3.39
		c-1.69-0.56-3.43-0.98-5.05-1.7c-59.05-26.38-118.09-52.8-177.15-79.17c-16.72-7.46-33.5-14.78-50.25-22.17L975.37,442.47z"/>
	<path class="st2" d="M743.86,544.81c5.56-2.14,11.22-4.03,16.65-6.45c68.37-30.51,136.7-61.09,205.04-91.65
		c3.25-1.45,6.54-2.83,9.81-4.24c0,0,0.33,0.35,0.33,0.35c-0.05,0.97-0.13,1.94-0.13,2.91c-0.01,77.05-0.01,154.09,0,231.14
		c0,1.45,0.18,2.9,0.27,4.35c-1.89-0.64-3.95-0.98-5.64-1.96c-74.45-43.16-148.87-86.38-223.26-129.64
		c-1.53-0.89-2.65-2.49-3.96-3.76c0.33-0.36,0.66-0.72,0.99-1.07L743.86,544.81z"/>
	<path class="st3" d="M975.84,681.22c-0.09-1.45-0.27-2.9-0.27-4.35c-0.01-77.05-0.01-154.09,0-231.14c0-0.97,0.09-1.94,0.13-2.91
		c16.75,7.38,33.53,14.7,50.25,22.17c59.06,26.37,118.09,52.8,177.15,79.17c1.61,0.72,3.36,1.14,5.05,1.7
		c-5.29,3.59-10.39,7.49-15.89,10.7c-43.8,25.57-87.68,51.01-131.53,76.48c-26.48,15.38-52.97,30.76-79.48,46.08
		C979.58,680.09,977.65,680.54,975.84,681.22z"/>
	<path class="st4" d="M745.07,592.41c15.88,9.09,31.79,18.12,47.62,27.3c59.72,34.62,119.41,69.28,179.12,103.93
		c1.26,0.73,2.5,1.51,3.74,2.26c-0.02,62.23-0.05,124.46-0.07,186.69c-0.97-1.05-2.05-2.01-2.88-3.15
		C897.29,805.22,822,701,746.72,596.78c-0.85-1.18-1.63-2.42-2.44-3.63C744.54,592.91,744.8,592.66,745.07,592.41z"/>
	<path class="st2" d="M975.48,912.59c0.02-62.23,0.05-124.46,0.07-186.69c52.41-30.43,104.82-60.86,157.23-91.29
		c23.12-13.42,46.25-26.84,69.38-40.25c1.5-0.87,3.05-1.67,5.81-3.18c-1.42,2.34-2.04,3.55-2.83,4.64
		c-75.27,104.17-150.55,208.33-225.85,312.48C978.18,909.84,976.75,911.16,975.48,912.59z"/>
	<path class="st4" d="M744.27,593.15c-0.22-0.38-0.44-0.77-0.66-1.15c0.49,0.14,0.97,0.27,1.46,0.41
		C744.8,592.66,744.54,592.91,744.27,593.15z"/>
	<path class="st1" d="M743.98,544.79c-0.33,0.36-0.66,0.72-0.99,1.07C743.32,545.5,743.65,545.14,743.98,544.79z"/>
</g>
</svg>
