<svg width="35" height="30" viewBox="0 0 35 30" fill="none" xmlns="http://www.w3.org/2000/svg">
<path d="M34.8113 16.8249C33.5847 17.3013 33.1858 17.0375 33.1722 15.576C33.1394 12.0635 33.1585 8.55374 33.1558 5.04127C33.1558 4.55141 33.1667 4.06155 33.1367 3.57438C33.0574 2.3578 32.3799 1.71182 31.1479 1.66338C30.3366 1.63108 29.5225 1.64454 28.7084 1.64454C20.7151 1.64454 12.7191 1.64184 4.72589 1.64454C2.25087 1.64454 1.781 2.10748 1.77007 4.50565C1.77007 4.77212 1.80012 5.04396 1.76461 5.30504C1.58431 6.62659 2.21809 6.98995 3.48018 6.94689C5.69021 6.86883 7.90571 6.90651 10.1185 6.93074C13.2792 6.96573 14.7325 8.41647 14.7762 11.5441C14.7899 12.4323 14.7926 13.3232 14.7762 14.2114C14.7161 17.2286 13.2355 18.6767 10.1403 18.7116C7.83741 18.7386 5.53177 18.7628 3.23159 18.7009C2.09516 18.6713 1.75642 19.1019 1.75095 20.1839C1.7291 23.7421 1.94764 24.0005 5.52357 24.0005C9.54206 24.0005 13.5633 24.0005 17.5818 24.0005C17.8987 24.0005 18.2155 23.9817 18.5297 24.0059C19.2673 24.0598 20.33 23.8579 20.3463 24.8887C20.3627 26.0057 19.2618 25.707 18.5625 25.7097C13.7764 25.7339 8.9875 25.7312 4.20138 25.7177C1.42587 25.7097 0.0326464 24.3451 0.0271827 21.6212C0.0135237 15.7967 0.0545008 9.97488 -0.000135312 4.15306C-0.0192579 2.18554 0.737452 0.818231 2.5541 0.0161493C12.9623 0.0161493 23.3677 0.0269155 33.7759 0C34.5709 0 34.8468 0.110354 34.8358 0.995873C34.7812 6.27131 34.8085 11.5494 34.8085 16.8249H34.8113ZM6.84577 8.65064C5.53723 8.65064 4.22597 8.67755 2.91743 8.63987C2.09789 8.61565 1.78647 8.9494 1.79739 9.74341C1.82471 11.7863 1.82198 13.8319 1.79739 15.8748C1.7892 16.6445 2.05145 17.0133 2.89285 17.0025C5.46621 16.9702 8.0423 17.0267 10.6129 16.9702C12.14 16.9379 12.9377 16.1304 13.0115 14.6313C13.0688 13.4335 13.0688 12.2304 13.0115 11.0327C12.9404 9.47694 12.1236 8.71523 10.5037 8.65871C9.28527 8.61834 8.06688 8.65064 6.84577 8.64795V8.65064Z" fill="#9E3FFD"/>
<path d="M34.8114 21.0937C34.1913 21.6158 33.4373 21.4409 32.7325 21.449C30.5717 21.4705 30.5717 21.4597 30.5689 23.6372C30.5689 25.1014 30.5853 26.5683 30.5635 28.0325C30.5416 29.4994 30.0909 29.9569 28.6348 29.9865C27.4629 30.0108 26.2882 30.0108 25.1162 29.9865C23.6329 29.9569 23.1193 29.4455 23.0947 27.941C23.0674 26.1645 23.0565 24.3881 23.0947 22.6117C23.1138 21.7477 22.7778 21.3951 21.9009 21.449C21.2262 21.492 20.5487 21.4543 19.8712 21.4436C19.4423 21.4355 19.0626 21.3171 18.8959 20.873C18.7484 20.48 18.9533 20.1758 19.2128 19.9202C21.5048 17.6539 23.7968 15.3903 26.1052 13.1401C26.8072 12.4565 27.4082 12.8495 27.9682 13.3985C29.8177 15.2207 31.6671 17.0429 33.522 18.8597C33.9372 19.2661 34.3825 19.6429 34.8114 20.0332V21.099V21.0937ZM22.0839 19.3415C22.3981 19.8179 22.6931 19.7129 22.9472 19.7291C24.6573 19.8421 24.8403 20.0278 24.8513 21.7423C24.8595 23.072 24.8513 24.4043 24.8513 25.7339C24.8513 28.3716 24.8513 28.3339 27.4956 28.2882C28.4955 28.2693 28.8588 27.906 28.8288 26.9424C28.7823 25.4351 28.8178 23.9279 28.8178 22.4206C28.8178 20.7554 29.6337 19.8421 31.2655 19.6806C31.3311 19.6752 31.3885 19.5703 31.5606 19.4088C30.1346 18.0038 28.7113 16.6042 27.2908 15.2019C26.9657 14.8816 26.6761 14.9273 26.3619 15.2315C24.9277 16.6176 23.4854 17.9957 22.0812 19.3442L22.0839 19.3415Z" fill="#9E3FFD"/>
<path d="M7.30754 9.83761C8.91931 9.82684 10.3453 11.1915 10.3754 12.7795C10.4054 14.3567 9.01765 15.7644 7.39496 15.8048C5.78593 15.8451 4.38724 14.4886 4.36812 12.8656C4.349 11.2372 5.69578 9.84838 7.30754 9.83761Z" fill="#9E3FFD"/>
</svg>
