<svg width="35" height="30" viewBox="0 0 35 30" fill="none" xmlns="http://www.w3.org/2000/svg">
<path d="M-0.000194236 2.51457C0.812235 0.721517 2.21005 -0.0107809 4.20693 -1.18113e-05C12.9795 0.0430646 21.7549 0.0134496 30.5302 0.0215264C33.4954 0.0215264 34.8303 1.34074 34.8358 4.25916C34.844 8.48334 34.8385 12.7075 34.8358 16.9317C34.8358 17.2871 34.8358 17.6451 34.7756 17.9951C34.7127 18.3855 34.4446 18.6305 34.0343 18.6494C33.6212 18.6682 33.3149 18.4448 33.2383 18.0624C33.1398 17.5886 33.096 17.0959 33.0933 16.614C33.0824 12.5244 33.0933 8.43219 33.0824 4.34262C33.0769 2.30457 32.5024 1.74997 30.3989 1.74727C21.7138 1.7392 13.0315 1.7392 4.34644 1.74727C2.19637 1.74727 1.6739 2.2965 1.65749 4.47455C1.6429 6.17606 2.48542 7.02682 4.18505 7.02682C6.17372 7.02682 8.16513 7.00259 10.1538 7.0349C13.1436 7.08605 14.6181 8.55873 14.6782 11.5148C14.6974 12.4491 14.6974 13.3833 14.6782 14.3148C14.6181 17.3328 13.1382 18.7786 10.0334 18.8136C7.72746 18.8405 5.41874 18.8647 3.11275 18.8028C1.97207 18.7732 1.63834 19.2094 1.63287 20.289C1.61099 23.8481 1.82709 24.1039 5.41326 24.1039C8.71495 24.1039 12.0166 24.1012 15.3183 24.1093C15.7669 24.1093 16.2238 24.1389 16.6642 24.2224C17.0964 24.3058 17.4137 24.5804 17.3809 25.057C17.348 25.5281 17.0061 25.7489 16.5575 25.792C16.1991 25.827 15.8353 25.8243 15.4743 25.8243C11.7212 25.8243 7.96544 25.7839 4.2124 25.8431C2.21826 25.8754 0.817706 25.1189 -0.00292969 23.3312V2.51457H-0.000194236ZM6.5731 17.0932C7.79311 17.0932 9.01585 17.0932 10.2359 17.0932C10.3261 17.0932 10.4164 17.0932 10.5067 17.0878C12.0385 16.9748 12.8373 16.2344 12.9111 14.7375C12.9713 13.5394 12.9686 12.336 12.9111 11.1379C12.84 9.58179 12.0248 8.79026 10.4027 8.76334C7.87243 8.71757 5.33941 8.76603 2.80638 8.73911C1.99121 8.72834 1.67117 9.04064 1.67937 9.83755C1.70673 11.881 1.7122 13.9271 1.67664 15.9706C1.66022 16.8617 2.06234 17.1336 2.90759 17.1067C4.1276 17.0663 5.34761 17.0959 6.57036 17.0932H6.5731Z" fill="#9E3FFD"/>
<path d="M26.3289 30C24.0612 27.7735 21.788 25.5524 19.5285 23.3178C19.1319 22.9247 18.5301 22.5559 18.8474 21.8693C19.1237 21.269 19.7474 21.382 20.2808 21.3686C22.0953 21.3237 23.0026 20.4209 23.0026 18.6601C23.0026 17.3732 22.9807 16.0863 23.0135 14.7994C23.0491 13.3833 23.5715 12.8664 24.9803 12.8341C26.1976 12.8071 27.4176 12.8044 28.6376 12.8341C30.0135 12.8664 30.4704 13.3294 30.4922 14.7213C30.5169 16.4067 30.5634 18.0975 30.4786 19.7801C30.4184 20.9674 30.7548 21.5516 32.0542 21.3766C32.5411 21.3093 33.0444 21.3686 33.5423 21.3713C34.0046 21.374 34.4833 21.3955 34.7048 21.8774C34.9538 22.4186 34.6118 22.8143 34.2535 23.167C32.6943 24.7097 31.1241 26.2416 29.5704 27.787C28.84 28.5112 28.137 29.2596 27.4203 29.9973H26.3344L26.3289 30ZM31.7205 23.1912C31.1077 23.132 30.8889 23.1024 30.6673 23.0889C28.985 22.9893 28.7634 22.7659 28.747 21.0751C28.7333 19.7882 28.7443 18.504 28.7443 17.2171C28.7443 14.3606 28.665 14.3067 25.8037 14.541C25.0596 14.6029 24.7615 14.8963 24.7724 15.6125C24.7916 16.9882 24.7724 18.3613 24.7724 19.7371C24.7724 21.6845 23.8305 22.8789 21.9467 23.3205C23.4703 24.8147 24.9229 26.2443 26.3781 27.6712C26.6653 27.9539 26.9444 27.8785 27.2042 27.6281C28.6321 26.2281 30.0573 24.8255 31.7205 23.1912Z" fill="#9E3FFD"/>
<path d="M7.2763 9.93718C8.90116 9.96949 10.2935 11.3695 10.2744 12.9498C10.2552 14.5329 8.83277 15.9086 7.21886 15.9086C5.60768 15.9086 4.24816 14.5221 4.2591 12.8933C4.27278 11.2672 5.66239 9.90757 7.2763 9.93718Z" fill="#9E3FFD"/>
</svg>
