<svg width="28" height="29" viewBox="0 0 28 29" fill="none" xmlns="http://www.w3.org/2000/svg">
<path d="M3.38147 27.9981C2.86113 27.5801 2.56992 27.0714 2.58424 26.3716C2.6105 24.9123 2.57708 23.4531 2.59618 21.9938C2.61289 20.7447 3.05208 20.236 4.27418 20.1882C5.73019 20.1309 7.19098 20.1572 8.64938 20.1834C9.30578 20.1954 9.91682 20.3984 10.1985 21.0695C10.504 21.7932 10.1722 22.3473 9.67575 22.8703C8.63267 23.9737 8.64699 23.9928 10.1197 24.5541C16.889 27.1311 24.329 22.5503 25.1381 15.3065C25.1787 14.953 25.2623 14.6043 25.2837 14.2532C25.3243 13.52 25.5702 12.9348 26.3411 12.7271C27.1264 12.5145 27.6062 12.9587 28 13.5558V15.925C27.8902 16.3406 27.7733 16.7562 27.6706 17.1741C26.6848 21.2582 24.3314 24.2961 20.6913 26.362C19.2019 27.2075 17.5549 27.5682 15.9294 28.0028H12.1414C11.0148 27.678 9.86193 27.4249 8.76872 27.0117C6.39375 26.1137 6.40807 26.0802 4.56776 28.0028H3.38386L3.38147 27.9981Z" fill="white"/>
<path d="M25.4723 3.96895C25.4723 4.71889 25.4627 5.46644 25.4723 6.21638C25.489 7.23619 24.9376 7.80223 23.9828 7.84283C22.4099 7.9097 20.8321 7.88582 19.2568 7.85238C18.6433 7.83805 18.0896 7.57772 17.8461 6.94721C17.5859 6.27131 17.8676 5.73871 18.3306 5.23955C19.4215 4.05732 19.4119 4.04777 17.9129 3.48412C11.1866 0.957266 3.70606 5.53331 2.93747 12.6505C2.88257 13.1593 2.81097 13.668 2.73936 14.1743C2.62717 14.9648 2.12354 15.3852 1.37166 15.3756C0.610238 15.3661 0.13763 14.8956 0.0397671 14.1241C-0.086739 13.1306 0.111374 12.1538 0.314261 11.1937C2.20947 2.15621 12.0244 -2.63001 20.2688 1.49703C21.214 1.96992 21.837 1.98664 22.4624 1.12445C22.6677 0.842626 22.9469 0.601404 23.2286 0.388843C24.2215 -0.356317 25.341 0.118961 25.446 1.36806C25.52 2.23025 25.4603 3.10199 25.4603 3.96895H25.4723V3.96895Z" fill="white"/>
</svg>
