<svg width="25" height="25" viewBox="0 0 25 25" fill="none" xmlns="http://www.w3.org/2000/svg">
<path d="M0.51162 0.00537529C8.59541 0.00537529 16.6792 0.00635262 24.763 0C24.9609 0 25 0.039093 25 0.237002C24.9936 8.32095 24.9946 16.4049 24.9946 24.4884C24.8089 24.87 24.503 25.0005 24.0833 25C16.3709 24.9932 8.65845 24.9951 0.946033 24.9946C0.263384 24.9946 0.00586384 24.7371 0.00586384 24.0544C0.00488653 16.3419 0.00684115 8.6293 0 0.916732C0 0.496482 0.130959 0.191067 0.51162 0.00537529ZM9.64016 1.5217C7.05567 1.5217 4.47069 1.5217 1.8862 1.5217C1.55685 1.5217 1.54121 1.53782 1.54121 1.86767C1.54024 4.14337 1.54024 6.41957 1.54219 8.69527C1.54219 8.78127 1.5031 8.8966 1.58666 8.94595C1.68634 9.00508 1.76453 8.89611 1.84222 8.84773C3.30085 7.94664 4.76242 7.04896 6.21274 6.13419C6.59194 5.89474 6.93888 5.87862 7.33225 6.08532C8.21671 6.55053 9.1129 6.99375 9.9998 7.45455C10.1694 7.54251 10.272 7.52932 10.3819 7.36562C10.5999 7.04212 10.852 6.74159 11.0607 6.41272C11.3011 6.03401 11.6348 5.89376 12.0683 5.90061C12.767 5.91136 13.4663 5.90256 14.1651 5.90452C14.2623 5.90452 14.3601 5.91184 14.4563 5.9265C14.8771 5.99199 15.1639 6.3189 15.1463 6.7069C15.1268 7.12568 14.8013 7.43012 14.3542 7.4355C13.8993 7.44136 13.4438 7.43745 12.9889 7.43794C12.1978 7.43794 12.2022 7.44087 11.7399 8.09373C11.6348 8.24228 11.6612 8.30336 11.8152 8.38057C12.6434 8.79545 13.4673 9.2196 14.2916 9.64181C14.3928 9.69361 14.4959 9.74443 14.5873 9.81138C14.8917 10.0337 14.9836 10.4403 14.8111 10.7687C14.6361 11.1024 14.2589 11.2612 13.9017 11.1435C13.7869 11.1054 13.6764 11.0506 13.5684 10.9954C11.411 9.89591 9.25314 8.79691 7.09916 7.69058C6.91054 7.59382 6.77029 7.59529 6.58656 7.71012C5.00235 8.70211 3.41373 9.68677 1.81975 10.6631C1.61305 10.7897 1.53633 10.9319 1.53682 11.1723C1.54317 15.1388 1.54121 19.1053 1.5417 23.0717C1.5417 23.4519 1.54805 23.4583 1.91992 23.4583C3.91118 23.4588 5.90245 23.4583 7.89371 23.4583C8.25531 23.4583 8.2558 23.4568 8.12142 23.1299C7.32931 21.2065 6.53476 19.2846 5.74656 17.3598C5.55697 16.8965 5.72067 16.4645 6.12674 16.294C6.54551 16.1181 6.96478 16.3135 7.16464 16.7846C7.3298 17.1736 7.48715 17.5655 7.64889 17.9559C7.74434 18.1859 7.89126 18.2317 8.08966 18.0932C8.46885 17.8274 8.84707 17.5596 9.22676 17.2938C9.67241 16.981 10.1156 16.6644 10.5666 16.3599C10.8344 16.1796 11.1218 16.1816 11.3934 16.3551C11.6563 16.5232 11.7717 16.7758 11.7394 17.0851C11.7111 17.3558 11.5444 17.5391 11.3294 17.6901C10.4445 18.3107 9.56735 18.9425 8.6736 19.5509C8.44247 19.7083 8.41803 19.8446 8.52309 20.0904C8.95946 21.1142 9.38215 22.1443 9.79555 23.1778C9.88302 23.3962 10.0071 23.4632 10.2339 23.4627C14.5252 23.4573 18.8171 23.4588 23.1084 23.4583C23.469 23.4583 23.4788 23.449 23.4788 23.0883C23.4793 21.2187 23.4788 19.3496 23.4788 17.48C23.4788 17.1384 23.4754 16.7973 23.4798 16.4557C23.4822 16.2651 23.429 16.2148 23.2584 16.3336C23.0185 16.5007 22.7703 16.6566 22.5264 16.8178C21.5569 17.459 20.5884 18.1011 19.6185 18.7412C19.4181 18.8736 19.207 18.9787 18.9563 18.9245C18.6431 18.8565 18.4276 18.6708 18.3524 18.3566C18.2722 18.0229 18.3787 17.7385 18.6597 17.544C19.1547 17.2024 19.66 16.8765 20.1614 16.5437C20.4604 16.3453 20.5112 16.0948 20.3138 15.7921C19.9898 15.2952 19.66 14.8021 19.3429 14.3002C19.1679 14.0232 19.1621 13.727 19.3414 13.448C19.5046 13.1939 19.7519 13.084 20.0519 13.1108C20.3343 13.1362 20.5239 13.3034 20.673 13.533C21.0307 14.0857 21.3967 14.633 21.75 15.1886C21.8482 15.3435 21.9264 15.3856 22.0925 15.2683C22.4707 15.0015 22.8597 14.7488 23.2516 14.5021C23.4133 14.4004 23.4822 14.2797 23.4822 14.0852C23.4778 10.0049 23.4793 5.92455 23.4783 1.84421C23.4783 1.54369 23.4554 1.52023 23.1607 1.51974C22.0226 1.51828 20.885 1.51828 19.747 1.51974C19.4523 1.51974 19.4391 1.5432 19.5896 1.79975C20.005 2.50782 20.4213 3.21491 20.8401 3.92103C20.9882 4.17074 21.0649 4.42778 20.9432 4.70876C20.6652 5.34988 20.3886 5.9915 20.1008 6.62871C19.9835 6.88917 19.7748 7.05385 19.4831 7.08659C18.9099 7.15061 18.4848 6.61699 18.6905 6.06382C18.8601 5.60741 19.0653 5.1637 19.2715 4.72244C19.3561 4.54066 19.3492 4.39943 19.2442 4.22596C18.7604 3.42651 18.283 2.62265 17.8202 1.81099C17.6951 1.59109 17.5475 1.51339 17.2969 1.51437C14.7446 1.52267 12.1924 1.51925 9.64064 1.51925L9.64016 1.5217Z" fill="white"/>
</svg>
