<svg width="16" height="30" viewBox="0 0 16 30" fill="none" xmlns="http://www.w3.org/2000/svg">
<path d="M8.84395 29.9998H7.5496C6.98551 29.5305 6.79967 28.8819 6.85215 28.1509C6.91555 27.2594 6.6182 26.8844 5.74146 26.7312C3.51134 26.342 1.51517 25.3633 0 23.4484V22.2787C1.01448 20.8849 1.52173 20.7906 2.88166 21.8117C3.74529 22.4603 4.66794 22.9649 5.66712 23.314C6.44766 23.5875 6.88931 23.472 6.85433 22.4037C6.79967 20.7694 6.80404 19.1303 6.85433 17.496C6.88275 16.5834 6.52856 16.1565 5.74583 15.9396C4.80787 15.6778 3.89615 15.3122 3.0522 14.7793C-0.323586 12.6568 -0.651544 7.69256 2.41377 5.05833C3.41951 4.19283 4.56081 3.65278 5.82454 3.42403C6.53512 3.29432 6.92867 2.92171 6.84559 2.08923C6.82372 1.85811 6.84121 1.61992 6.86526 1.38881C6.94835 0.610569 7.26537 0.018634 8.05466 -0.000232439C8.90954 -0.0190989 9.23312 0.605852 9.31402 1.4289C9.33807 1.66001 9.34682 1.8982 9.33151 2.12932C9.27248 2.99482 9.63542 3.36743 10.4291 3.50893C11.8284 3.75891 13.1052 4.37914 14.2334 5.32954C15.1517 6.1007 15.3506 6.8813 14.8478 7.72557C14.3274 8.60051 13.4682 8.76323 12.4952 8.11941C11.7868 7.65011 11.0653 7.23033 10.276 6.94498C9.64854 6.71858 9.32277 6.87659 9.33588 7.66898C9.35993 9.06981 9.37087 10.4754 9.32932 11.8762C9.30527 12.7063 9.5742 13.178 10.3351 13.3997C11.3408 13.6897 12.3116 14.0977 13.208 14.6967C16.9861 17.2201 16.9074 23.2338 13.0637 25.6558C12.1804 26.2123 11.2271 26.5496 10.2301 26.7217C9.56546 26.8373 9.28997 27.1934 9.33588 27.9009C9.38617 28.6579 9.27029 29.3772 8.83739 30.0021L8.84395 29.9998ZM9.34463 20.3449C9.34463 20.3449 9.34682 20.3449 9.349 20.3449C9.349 21.1207 9.35556 21.8943 9.349 22.6702C9.34026 23.4201 9.63542 23.6206 10.2957 23.3942C11.566 22.9579 12.3968 21.9061 12.4712 20.55C12.5499 19.1044 12.0098 18.2908 10.5143 17.6022C9.56764 17.1659 9.37305 17.2909 9.35119 18.371C9.33807 19.0289 9.349 19.6893 9.349 20.3472L9.34463 20.3449ZM6.84777 9.54383C6.84777 9.54383 6.8434 9.54383 6.84121 9.54383C6.84121 8.88586 6.84777 8.22789 6.84121 7.56993C6.83247 6.75159 6.43892 6.58887 5.77644 6.81527C4.70292 7.18081 3.85898 8.17365 3.77808 9.29149C3.68407 10.5744 4.4012 11.263 5.38071 11.7559C6.68161 12.4115 6.8434 12.3172 6.84996 10.822C6.84996 10.3975 6.84996 9.97068 6.84996 9.54619L6.84777 9.54383Z" fill="white"/>
</svg>
