<svg width="17" height="29" viewBox="0 0 17 29" fill="none" xmlns="http://www.w3.org/2000/svg">
<g clip-path="url(#clip0_1_566)">
<path d="M16.9999 13.7236C16.9578 13.9004 16.8211 13.9414 16.7133 14.0083C15.0717 15.0222 13.4294 16.034 11.7864 17.0459C10.7823 17.6645 9.77414 18.2776 8.77588 18.9057C8.57084 19.0347 8.41837 19.0347 8.2107 18.9057C5.57737 17.2732 2.93878 15.6503 0.301509 14.0247C-0.0704566 13.7953 -0.0704566 13.7926 0.147728 13.413C2.84612 8.71765 5.54385 4.02234 8.24225 -0.672276C8.25342 -0.692076 8.26459 -0.711193 8.27576 -0.730993C8.48606 -1.08876 8.50446 -1.08944 8.70885 -0.734406C9.52047 0.678213 10.3308 2.09151 11.1424 3.50345C13.0351 6.79569 14.9284 10.0873 16.8205 13.3795C16.8868 13.4956 16.9447 13.6164 16.9999 13.7229V13.7236Z" fill="white"/>
<path d="M0.0302342 16.5445C0.234618 16.5978 0.400228 16.7248 0.573067 16.8306C3.11111 18.3838 5.6498 19.9358 8.18127 21.4993C8.40931 21.6399 8.57098 21.6413 8.79902 21.5006C11.3699 19.9166 13.948 18.3449 16.5249 16.7712C16.6694 16.6831 16.8068 16.5718 16.9908 16.5363C16.9908 16.7022 16.8876 16.7835 16.8219 16.8797C14.1281 20.8322 11.4324 24.7826 8.73593 28.733C8.49146 29.0908 8.48686 29.0915 8.23516 28.7221C5.53414 24.7615 2.83378 20.8001 0.135383 16.8374C0.0821516 16.7596 -0.00656801 16.6913 0.0302342 16.5445V16.5445Z" fill="white"/>
</g>
<defs>
<clipPath id="clip0_1_566">
<rect width="17" height="29" fill="white"/>
</clipPath>
</defs>
</svg>
