<svg width="25" height="22" viewBox="0 0 25 22" fill="none" xmlns="http://www.w3.org/2000/svg">
<g clip-path="url(#clip0_1_462)">
<path d="M24.9999 3.37101C24.23 4.51245 23.2602 5.34821 21.9273 5.52191C21.0939 5.63014 20.3978 5.21464 19.7903 4.62333C19.2975 4.14447 18.9197 3.55896 18.5052 3.00725C18.2701 2.69364 18.0384 2.37739 17.7676 2.09705C17.4435 1.7618 17.0838 1.73381 16.6903 1.93338C16.312 2.12503 16.0285 2.43653 15.766 2.77442C15.3432 3.31927 14.9624 3.90161 14.5029 4.41214C14.0586 4.90578 13.5483 5.28116 12.8992 5.39151C12.0917 5.5293 11.4137 5.23576 10.8155 4.67348C10.2841 4.17403 9.89408 3.54101 9.44341 2.96554C9.21758 2.67727 8.99616 2.3869 8.71608 2.15407C8.11877 1.65779 7.6461 1.68577 7.127 2.26599C6.58394 2.87262 6.14696 3.57691 5.61466 4.19357C4.94256 4.97231 4.16489 5.53089 3.13059 5.48443C2.37052 5.45011 1.72872 5.07209 1.13435 4.5927C0.834716 4.3509 0.55268 4.08534 0.290196 3.79654C-0.065648 3.40533 -0.0915543 2.85995 0.225675 2.49777C0.541438 2.13823 1.02339 2.12609 1.4071 2.48563C1.71993 2.77864 2.01614 3.09066 2.36221 3.34197C3.08074 3.86307 3.61939 3.81397 4.23576 3.15772C4.69426 2.66935 5.07601 2.10972 5.48464 1.57595C6.10395 0.767123 6.78679 0.0760259 7.82744 0H7.87632C8.26149 0.0564915 8.64618 0.10084 9.00838 0.281401C9.62817 0.590257 10.1219 1.06383 10.5554 1.61925C10.9641 2.14192 11.3311 2.70209 11.7735 3.19414C11.9451 3.38474 12.1269 3.5616 12.3777 3.61598C12.7271 3.69254 12.9886 3.51303 13.2247 3.26225C13.7018 2.75594 14.0806 2.1604 14.5137 1.61397C14.9512 1.06278 15.439 0.583921 16.0622 0.278762C16.4249 0.10084 16.8086 0.0517399 17.1943 0H17.2431C17.8272 0.0522678 18.341 0.286681 18.7853 0.69796C19.0825 0.973026 19.3401 1.28663 19.5854 1.61449C20.0185 2.19314 20.411 2.81138 20.9243 3.31452C21.4634 3.84353 21.9429 3.87257 22.5554 3.44228C22.9112 3.19256 23.2197 2.88371 23.5247 2.56746C24.075 1.99726 24.6494 2.10866 24.9994 2.84358V3.37048L24.9999 3.37101Z" fill="white"/>
<path d="M25 11.5871C24.8548 11.9799 24.5459 12.2227 24.2726 12.4936C23.8635 12.8991 23.4143 13.2443 22.9035 13.4904C21.8277 14.0088 20.7127 13.7792 19.7982 12.8621C19.3065 12.369 18.9095 11.7909 18.4965 11.2265C18.2844 10.9366 18.0659 10.6547 17.823 10.3944C17.4388 9.98262 17.144 9.91979 16.5897 10.2223C16.1967 10.4367 15.925 10.8068 15.6478 11.1637C15.1996 11.7418 14.8027 12.3685 14.2787 12.8758C13.8251 13.3151 13.3094 13.6107 12.6891 13.654C11.9642 13.7047 11.3532 13.4143 10.82 12.9075C10.2671 12.3822 9.85264 11.7249 9.38388 11.1193C9.14877 10.8157 8.90975 10.5106 8.59643 10.2999C8.01329 9.90712 7.63105 9.9483 7.19505 10.4203C6.75757 10.8939 6.39195 11.4334 6.00092 11.9493C5.63334 12.4345 5.24084 12.8911 4.74813 13.2285C3.78471 13.8884 2.7993 13.8615 1.81046 13.295C1.21608 12.9545 0.704803 12.4931 0.240935 11.9709C-0.0792269 11.6103 -0.0782493 11.0824 0.228715 10.7355C0.537146 10.387 1.02252 10.3633 1.37299 10.6896C1.70488 10.9989 2.01673 11.3326 2.38529 11.5961C3.08329 12.095 3.59701 12.0512 4.20068 11.4229C4.71196 10.8912 5.12353 10.2667 5.58006 9.68432C5.89631 9.28096 6.23505 8.89977 6.6603 8.62893C7.6159 8.02125 8.54804 8.1807 9.4484 8.77201C10.2163 9.27674 10.7139 10.0734 11.2711 10.8041C11.452 11.0412 11.6353 11.2772 11.8362 11.4936C12.3088 12.0036 12.7615 12.0031 13.2346 11.4936C13.6613 11.0338 14.0142 10.5048 14.3945 10.0022C14.8305 9.42562 15.3115 8.90875 15.9382 8.57614C17.0013 8.01175 18.0375 8.17753 18.9115 9.04655C19.3749 9.50745 19.7346 10.0634 20.1301 10.5861C20.4229 10.9731 20.7059 11.3696 21.071 11.6853C21.4459 12.01 21.8438 12.0622 22.2759 11.8357C22.5936 11.6694 22.8722 11.4435 23.1352 11.1938C23.2633 11.0718 23.3801 10.9366 23.5077 10.8141C24.0976 10.2466 24.6055 10.3311 24.9995 11.0596V11.5866L25 11.5871Z" fill="white"/>
<path d="M25.0002 19.8565C24.3423 20.8089 23.525 21.5438 22.459 21.8823C21.4775 22.1938 20.6211 21.8648 19.8674 21.1574C19.3541 20.6754 18.9582 20.084 18.5378 19.5154C18.2993 19.1929 18.0652 18.8666 17.7856 18.5841C17.4459 18.2409 17.1154 18.1866 16.6912 18.3962C16.2948 18.592 16.0127 18.9326 15.737 19.2794C15.2663 19.8713 14.8533 20.5149 14.3269 21.0565C13.1816 22.2355 11.6424 22.17 10.5196 20.8216C10.1071 20.3264 9.7307 19.7958 9.33428 19.2847C9.0674 18.9405 8.78781 18.6068 8.40313 18.4109C8.00134 18.2061 7.62447 18.2145 7.28085 18.5699C6.76175 19.1063 6.35067 19.7409 5.88582 20.3269C5.42782 20.9045 4.93267 21.434 4.26693 21.7302C3.23997 22.1874 2.31028 21.9023 1.42897 21.282C0.997856 20.9789 0.61415 20.6136 0.257329 20.2145C-0.0647883 19.8539 -0.0809186 19.3312 0.214315 18.979C0.521279 18.6126 1.00421 18.5809 1.37423 18.9199C1.68364 19.2034 1.97301 19.5102 2.30832 19.763C3.08942 20.3517 3.67842 20.2857 4.32998 19.5255C4.7831 18.997 5.18293 18.4205 5.61356 17.8714C6.01633 17.3577 6.45967 16.8883 7.05454 16.6476C7.9246 16.2954 8.73209 16.5108 9.48923 17.0309C10.2112 17.5266 10.698 18.2705 11.223 18.9732C11.417 19.233 11.6145 19.4885 11.8355 19.7229C12.3174 20.234 12.7539 20.2345 13.2329 19.7229C13.6733 19.2525 14.0316 18.7066 14.4246 18.1924C14.8103 17.6876 15.2292 17.2209 15.7654 16.9073C17.0377 16.1634 18.1815 16.3899 19.1684 17.5535C19.6464 18.1174 20.0492 18.7473 20.5165 19.3206C20.6397 19.4721 20.7658 19.6221 20.9022 19.7599C21.4555 20.3195 21.9707 20.3554 22.5939 19.8845C22.9077 19.6474 23.2181 19.4003 23.4674 19.0878C23.9434 18.4912 24.6678 18.5493 25.0002 19.2773V19.8565Z" fill="white"/>
</g>
<defs>
<clipPath id="clip0_1_462">
<rect width="25" height="22" fill="white"/>
</clipPath>
</defs>
</svg>
