<svg width="28" height="28" viewBox="0 0 28 28" fill="none" xmlns="http://www.w3.org/2000/svg">
<path d="M14.305 28H13.7095C13.5478 27.9247 13.3838 27.8543 13.2239 27.7742C11.3599 26.8423 9.49713 25.9087 7.63317 24.9762C5.37899 23.8484 3.12601 22.7189 0.870041 21.5947C0.519802 21.4202 0.232213 21.1944 0.0902079 20.8169C-0.158599 20.1551 0.108108 19.4956 0.788299 19.1497C1.99116 18.538 3.20059 17.9395 4.40584 17.3326C4.48818 17.2914 4.6266 17.28 4.61885 17.1588C4.61288 17.065 4.48997 17.0477 4.413 17.0094C3.23341 16.4175 2.05441 15.8237 0.870637 15.2401C0.347368 14.982 0.00607898 14.5956 0.00548232 13.9952C0.00488566 13.3949 0.341401 13.0072 0.867057 12.7486C2.04248 12.1697 3.21193 11.5796 4.38138 10.99C4.47207 10.9446 4.6266 10.9344 4.61825 10.8036C4.61169 10.7027 4.47147 10.6841 4.38555 10.6411C3.21431 10.0545 2.04307 9.46854 0.869444 8.88672C0.539492 8.72305 0.263836 8.51159 0.114074 8.16154C-0.180675 7.47221 0.101544 6.78406 0.843191 6.41311C4.97863 4.34152 9.11586 2.27589 13.2471 0.197128C13.7734 -0.0674961 14.2519 -0.0645093 14.7752 0.19892C18.8885 2.26753 23.0061 4.32778 27.126 6.38265C27.5616 6.59948 27.8665 6.90473 27.9989 7.37544V7.91185C27.8587 8.39212 27.5395 8.69915 27.0938 8.91599C25.9249 9.48466 24.7656 10.0731 23.6033 10.6549C23.5258 10.6937 23.4017 10.711 23.3957 10.8036C23.3879 10.9237 23.5276 10.9338 23.6093 10.9756C24.7525 11.5515 25.8933 12.1333 27.0449 12.6912C27.4977 12.911 27.8384 13.2091 27.9983 13.6942V14.2903C27.8414 14.7772 27.5025 15.0758 27.0484 15.295C25.9136 15.8428 24.7907 16.4151 23.6654 16.982C23.5651 17.0321 23.3951 17.0447 23.3975 17.1779C23.3993 17.2866 23.5586 17.3075 23.6529 17.3547C24.7877 17.9252 25.9196 18.501 27.0616 19.0565C27.515 19.277 27.8498 19.5816 27.9977 20.072V20.6084C27.8694 21.0953 27.5472 21.3969 27.1039 21.6174C24.6445 22.8389 22.1922 24.0736 19.7352 25.3C17.9261 26.2032 16.1141 27.0998 14.3032 28H14.305ZM7.67016 12.2964C7.59737 12.3227 7.52995 12.3394 7.46849 12.3698C6.47446 12.8656 5.48102 13.3626 4.48818 13.8608C4.42792 13.8907 4.33424 13.908 4.33364 13.9833C4.33305 14.0944 4.45238 14.1039 4.52637 14.1416C7.59379 15.6797 10.6636 17.2137 13.7298 18.7543C13.9273 18.8534 14.089 18.8552 14.2871 18.7555C17.3539 17.2149 20.4237 15.6803 23.4918 14.1428C23.5657 14.1057 23.6922 14.0938 23.6815 13.9839C23.6719 13.8871 23.5526 13.8722 23.4756 13.8333C22.5455 13.3656 21.6099 12.9069 20.6845 12.429C20.4577 12.3119 20.277 12.3107 20.0478 12.4272C18.3146 13.3071 16.5681 14.1631 14.8396 15.0525C14.2662 15.347 13.7501 15.3488 13.1761 15.0531C11.4476 14.1631 9.70417 13.3029 7.96551 12.432C7.86885 12.3836 7.76801 12.3418 7.66897 12.2964H7.67016ZM14.0031 25.2277C14.0848 25.1949 14.16 25.1698 14.2298 25.1345C17.3187 23.5892 20.407 22.0433 23.4947 20.4967C23.5634 20.4627 23.6702 20.4472 23.6743 20.3605C23.6791 20.2518 23.5586 20.2399 23.4834 20.2017C22.5532 19.7327 21.6177 19.2734 20.6922 18.7949C20.456 18.673 20.2638 18.6736 20.0264 18.7949C18.2829 19.6796 16.5299 20.5445 14.7883 21.4322C14.2567 21.7028 13.762 21.7046 13.2298 21.4334C11.4882 20.5451 9.7352 19.6796 7.99236 18.7937C7.75429 18.6724 7.56216 18.6748 7.32648 18.7961C6.40942 19.2692 5.48221 19.7232 4.56097 20.1879C4.47804 20.2297 4.3408 20.2429 4.34379 20.3599C4.34617 20.4549 4.47088 20.4722 4.54725 20.5105C7.60811 22.0445 10.6702 23.5761 13.7322 25.1077C13.8199 25.1519 13.9118 25.1877 14.0031 25.2283V25.2277Z" fill="white"/>
</svg>
